<svg width="3877" height="3859" viewBox="0 0 3877 3859" fill="none" xmlns="http://www.w3.org/2000/svg">
<path d="M743 1369C743 1148.09 922.086 969 1143 969H2972C3192.91 969 3372 1148.09 3372 1369V2973.25C3372 3194.17 3193.19 3373.25 2972.27 3373.25C2586.84 3373.25 1999.36 3373.25 1563 3373.25C1433.15 3373.25 1360.35 3373.25 1230.5 3373.25C1203.15 3373.25 1173.59 3373.25 1143.03 3373.25C922.121 3373.25 743 3194.17 743 2973.25V1369Z" fill="#91AC88"/>
<path d="M1230.5 3373.25C1239.89 3513.3 1348.62 3724.58 1434.71 3613.72C1483.75 3550.57 1527.8 3471.67 1563 3373.25H1230.5V3373.25Z" fill="#91AC88"/>
<path d="M700 1294C700 1073.09 879.086 894 1100 894H2929C3149.91 894 3329 1073.09 3329 1294V2898.25C3329 3119.17 3150.19 3298.25 2929.27 3298.25C2543.84 3298.25 1956.36 3298.25 1520 3298.25C1390.15 3298.25 1317.35 3298.25 1187.5 3298.25C1160.15 3298.25 1130.59 3298.25 1100.03 3298.25C879.121 3298.25 700 3119.17 700 2898.25V1294Z" fill="#B7D8AC"/>
<path d="M1187.5 3298.25C1196.89 3438.3 1305.62 3649.58 1391.71 3538.72C1440.75 3475.57 1484.8 3396.67 1520 3298.25H1187.5V3298.25Z" fill="#B7D8AC"/>
<circle cx="2722" cy="1412" r="692" fill="#91AC88"/>
<circle cx="2876.48" cy="1205.04" r="791.937" fill="black"/>
<path d="M3768.67 1496.73C3763.48 1405.98 3723.08 1306.97 3426.55 1253.77L3115.81 1691.33C3285.47 1929.02 3441.81 1971.18 3527.57 1885.44C3613.32 1799.7 3773.86 1587.47 3768.67 1496.73Z" stroke="black" stroke-width="40"/>
<path d="M2245.45 487.499C2332.62 461.753 2439.46 466.352 2589.65 727.508L2282.69 1167.72C2001.67 1088.27 1909.2 955.347 1960.95 845.68C2012.71 736.012 2158.28 513.246 2245.45 487.499Z" stroke="black" stroke-width="40"/>
<circle cx="2878.46" cy="1207.02" r="698.884" fill="#EFB139"/>
<path fill-rule="evenodd" clip-rule="evenodd" d="M2880.1 1906.22C3266.08 1906.22 3578.98 1593.32 3578.98 1207.34C3578.98 821.357 3266.08 508.456 2880.1 508.456C2494.12 508.456 2181.22 821.357 2181.22 1207.34C2181.22 1593.32 2494.12 1906.22 2880.1 1906.22ZM2880.1 1870.59C3246.4 1870.59 3543.35 1573.64 3543.35 1207.34C3543.35 841.039 3246.4 544.093 2880.1 544.093C2513.8 544.093 2216.85 841.039 2216.85 1207.34C2216.85 1573.64 2513.8 1870.59 2880.1 1870.59Z" fill="#974843"/>
<path d="M3274.34 1265.2C3223.35 1274.41 3209.73 1290.94 3209.73 1290.94L3185.71 1320.95C3185.71 1320.95 3200.03 1368.33 3226.04 1379.08C3240.87 1385.22 3250.27 1383.46 3259.86 1381.51C3267.09 1380.05 3274.42 1378.48 3284.26 1380.1C3307.14 1383.88 3310.03 1465.38 3310.03 1465.38C3310.03 1465.38 3309.02 1471.01 3307.04 1479.03C3305.01 1487.2 3294.18 1489.71 3290.18 1499.41L3310.03 1534.52C3320.99 1510.03 3376.03 1485.02 3376.03 1485.02C3376.03 1485.02 3405.06 1410.62 3377.12 1352.03C3354.2 1303.96 3325.34 1255.99 3274.34 1265.2Z" fill="#F9D1A6"/>
<path fill-rule="evenodd" clip-rule="evenodd" d="M3256.27 1526.6L3249.32 1513.86C3214.67 1519.38 3193.89 1471.15 3193.89 1471.15L3209.73 1513.86C3209.73 1513.86 3243.03 1525.4 3256.27 1526.6Z" fill="#F9D1A6"/>
<path d="M3290.18 1499.41C3290.18 1499.41 3260.75 1512.04 3249.32 1513.86L3256.27 1526.6C3271.57 1527.97 3292.93 1539.1 3310.03 1534.52C3327.14 1529.93 3288.4 1558.72 3310.03 1534.52L3290.18 1499.41Z" fill="#F9D1A6"/>
<path d="M3284.67 1329.57L3285.45 1375.93L3282.42 1376.85L3284.67 1329.57ZM3284.67 1329.57L3262.5 1283.59" stroke="#F3BD9A"/>
<path d="M3297.23 1384.78L3319.88 1367.72L3330.9 1345.65" stroke="#F3BD9A"/>
<path d="M3332 1417.71L3310.18 1413.96L3309.26 1424.58L3332 1417.71Z" fill="#F3BD9A"/>
<path d="M3364.39 1401.71L3349.05 1412.55M3349.05 1412.55L3332 1417.71L3310.18 1413.96L3309.26 1424.58L3349.05 1412.55Z" stroke="#F3BD9A"/>
<path fill-rule="evenodd" clip-rule="evenodd" d="M3308.72 1465.22L3318.81 1446.51L3304.81 1382.49L3290.18 1368.3L3259.86 1381.51C3260.02 1381.48 3260.18 1381.45 3260.34 1381.42C3267.42 1379.98 3274.64 1378.51 3284.26 1380.1C3307.14 1383.88 3308.72 1465.22 3308.72 1465.22Z" fill="#F3BD9A"/>
<path d="M3249.18 1287.62L3222.39 1280.91C3221 1281.87 3213.15 1287.8 3212.28 1288.52L3185.71 1320.95L3199.15 1351.53L3218.13 1318.72L3251.46 1308.65L3268.31 1327.34L3261.72 1305.54L3249.18 1287.62Z" fill="#FEDBBB"/>
<path fill-rule="evenodd" clip-rule="evenodd" d="M3243.38 1530.56L3231.5 1498.88C3191.91 1471.16 3189.93 1447.4 3189.93 1447.4L3189.93 1498.88C3189.93 1498.88 3230.14 1529.36 3243.38 1530.56Z" fill="#F49050" fill-opacity="0.9"/>
<path d="M3270.7 1495.2C3270.7 1495.2 3242.94 1497.06 3231.5 1498.88L3243.38 1530.56C3258.68 1531.93 3227.65 1533.24 3243.38 1530.56C3259.12 1527.87 3297.85 1552.75 3324.56 1538.47L3270.7 1495.2Z" fill="#F49050" fill-opacity="0.9"/>
<path d="M3324.56 1538.47C3333.09 1529.1 3386.04 1482.84 3387.91 1471.16L3344.35 1475.12L3302.78 1455.32C3300.75 1463.5 3274.71 1485.49 3270.7 1495.2L3324.56 1538.47Z" fill="#F49050" fill-opacity="0.9"/>
<path fill-rule="evenodd" clip-rule="evenodd" d="M3233.48 1534.52L3255.26 1532.54L3251.3 1496.9C3216.65 1502.41 3191.91 1451.36 3191.91 1451.36L3185.71 1499.16C3185.71 1499.16 3220.24 1533.32 3233.48 1534.52Z" fill="#E47747"/>
<path d="M2892.37 1086.44C2842.21 1073.45 2822.92 1082.76 2822.92 1082.76L2788.54 1099.96C2788.54 1099.96 2781.71 1148.98 2800.82 1169.64C2811.72 1181.41 2821 1183.75 2830.53 1186C2837.7 1187.7 2845.02 1189.34 2853.27 1194.93C2872.47 1207.94 2840.98 1283.17 2840.98 1283.17C2840.98 1283.17 2837.7 1287.86 2832.54 1294.31C2827.28 1300.89 2816.4 1298.63 2808.7 1305.76L2812.04 1345.96C2832.24 1328.31 2892.69 1328.64 2892.69 1328.64C2892.69 1328.64 2950.2 1273.22 2949.35 1208.32C2948.66 1155.07 2942.53 1099.42 2892.37 1086.44Z" fill="#F9D1A6"/>
<path fill-rule="evenodd" clip-rule="evenodd" d="M2766.53 1316.26L2765.55 1301.78C2731.77 1292.28 2733.08 1239.79 2733.08 1239.79L2729.59 1285.21C2729.59 1285.21 2755 1309.63 2766.53 1316.26Z" fill="#F9D1A6"/>
<path d="M2808.7 1305.76C2808.7 1305.76 2776.69 1304.92 2765.55 1301.78L2766.53 1316.26C2779.84 1323.91 2794.58 1342.96 2812.04 1345.96C2829.49 1348.95 2782.26 1358.88 2812.04 1345.96L2808.7 1305.76Z" fill="#F9D1A6"/>
<path d="M2874.8 1149.22L2856.1 1191.65L2852.96 1191.21L2874.8 1149.22ZM2874.8 1149.22L2873.92 1098.18" stroke="#F3BD9A"/>
<path d="M2863.09 1204.61L2890.8 1198.6L2910.05 1183.17" stroke="#F3BD9A"/>
<path d="M2880.88 1249.07L2862.64 1236.54L2857.35 1245.79L2880.88 1249.07Z" fill="#F3BD9A"/>
<path d="M2917 1248.11L2898.53 1251.53M2898.53 1251.53L2880.88 1249.07L2862.64 1236.54L2857.35 1245.79L2898.53 1251.53Z" stroke="#F3BD9A"/>
<path fill-rule="evenodd" clip-rule="evenodd" d="M2839.85 1282.47L2856.85 1269.71L2870.93 1205.71L2863.59 1186.69L2830.53 1186C2830.69 1186.04 2830.84 1186.08 2831 1186.12C2838.03 1187.77 2845.2 1189.46 2853.27 1194.93C2872.47 1207.94 2839.85 1282.47 2839.85 1282.47Z" fill="#F3BD9A"/>
<path d="M2860.13 1096.26L2838.61 1078.95C2836.95 1079.25 2827.34 1081.34 2826.25 1081.63L2788.54 1099.96L2787.95 1133.35L2818.91 1111.51L2853.4 1116.31L2860.87 1140.34L2864.01 1117.79L2860.13 1096.26Z" fill="#FEDBBB"/>
<path fill-rule="evenodd" clip-rule="evenodd" d="M2753.16 1314.46L2755.64 1280.72C2731.28 1238.97 2739.43 1216.56 2739.43 1216.56L2717.88 1263.31C2717.88 1263.31 2741.64 1307.83 2753.16 1314.46Z" fill="#F49050" fill-opacity="0.9"/>
<path d="M2792.77 1293.78C2792.77 1293.78 2766.78 1283.85 2755.64 1280.72L2753.16 1314.46C2766.48 1322.11 2737.75 1310.31 2753.16 1314.46C2768.58 1318.6 2793.33 1357.42 2823.57 1355.63L2792.77 1293.78Z" fill="#F49050" fill-opacity="0.9"/>
<path d="M2823.57 1355.63C2835.24 1350.69 2902.69 1330.85 2909.28 1321.02L2868.07 1306.38L2838.6 1271C2833.34 1277.57 2800.48 1286.65 2792.77 1293.78L2823.57 1355.63Z" fill="#F49050" fill-opacity="0.9"/>
<path fill-rule="evenodd" clip-rule="evenodd" d="M2742.52 1313.91L2763.12 1321.23L2774.45 1287.21C2740.67 1277.71 2739.57 1220.99 2739.57 1220.99L2713.93 1261.8C2713.93 1261.8 2730.99 1307.28 2742.52 1313.91Z" fill="#E47747"/>
<path d="M2711.49 1620.95C2702.54 1671.98 2713.35 1690.47 2713.35 1690.47L2733.23 1723.37C2733.23 1723.37 2782.64 1726.28 2801.71 1705.58C2812.59 1693.78 2814.18 1684.35 2815.66 1674.67C2816.78 1667.38 2817.84 1659.96 2822.76 1651.29C2834.2 1631.11 2911.69 1656.52 2911.69 1656.52C2911.69 1656.52 2916.63 1659.42 2923.47 1664.05C2930.44 1668.77 2929.06 1679.79 2936.78 1686.9L2976.58 1680.38C2957.38 1661.64 2952.9 1601.36 2952.9 1601.36C2952.9 1601.36 2893.08 1548.44 2828.45 1554.45C2775.43 1559.37 2720.45 1569.91 2711.49 1620.95Z" fill="#F9D1A6"/>
<path fill-rule="evenodd" clip-rule="evenodd" d="M2950.6 1728.11L2936.25 1730.24C2929.46 1764.66 2877.03 1767.53 2877.03 1767.53L2922.59 1767.39C2922.59 1767.39 2944.91 1740.12 2950.6 1728.11Z" fill="#F9D1A6"/>
<path d="M2936.78 1686.9C2936.78 1686.9 2938.49 1718.88 2936.25 1730.24L2950.6 1728.11C2957.17 1714.22 2974.98 1698.02 2976.58 1680.38C2978.18 1662.74 2991.84 1709.04 2976.58 1680.38L2936.78 1686.9Z" fill="#F9D1A6"/>
<path d="M2775.47 1633.46L2819.26 1648.73L2819.07 1651.89L2775.47 1633.46ZM2775.47 1633.46L2724.67 1638.41" stroke="#F3BD9A"/>
<path d="M2831.63 1640.73L2823.42 1613.59L2806.51 1595.62" stroke="#F3BD9A"/>
<path d="M2874.53 1619.46L2863.48 1638.64L2873.13 1643.17L2874.53 1619.46Z" fill="#F3BD9A"/>
<path d="M2870.69 1583.53L2875.57 1601.67M2875.57 1601.67L2874.53 1619.46L2863.48 1638.64L2873.13 1643.17L2875.57 1601.67Z" stroke="#F3BD9A"/>
<path fill-rule="evenodd" clip-rule="evenodd" d="M2911.09 1657.7L2897.01 1641.78L2832.09 1632.83L2813.72 1641.66L2815.66 1674.67C2815.69 1674.51 2815.71 1674.35 2815.74 1674.19C2816.83 1667.05 2817.95 1659.77 2822.75 1651.29C2834.2 1631.11 2911.09 1657.7 2911.09 1657.7Z" fill="#F3BD9A"/>
<path d="M2723.85 1652.3L2708.31 1675.13C2708.74 1676.76 2711.58 1686.18 2711.96 1687.24L2733.23 1723.37L2766.57 1721.3L2742.33 1692.17L2744.37 1657.41L2767.73 1648.05L2745 1646.72L2723.85 1652.3Z" fill="#FEDBBB"/>
<path fill-rule="evenodd" clip-rule="evenodd" d="M2949.86 1741.57L2916.03 1741.79C2876.35 1769.39 2853.37 1763.05 2853.37 1763.05L2901.69 1780.81C2901.69 1780.81 2944.18 1753.59 2949.86 1741.57Z" fill="#F49050" fill-opacity="0.9"/>
<path d="M2926.1 1703.73C2926.1 1703.73 2918.27 1730.43 2916.03 1741.79L2949.86 1741.57C2956.44 1727.69 2946.96 1757.27 2949.86 1741.57C2952.77 1725.88 2989.49 1698.11 2985.31 1668.12L2926.1 1703.73Z" fill="#F49050" fill-opacity="0.9"/>
<path d="M2985.31 1668.12C2979.45 1656.87 2954.31 1591.21 2943.99 1585.42L2932.68 1627.67L2899.75 1659.86C2906.72 1664.58 2918.38 1696.62 2926.1 1703.73L2985.31 1668.12Z" fill="#F49050" fill-opacity="0.9"/>
<path fill-rule="evenodd" clip-rule="evenodd" d="M2950.17 1752.23L2955.82 1731.1L2921.01 1722.52C2914.22 1756.95 2857.77 1762.56 2857.77 1762.56L2900.49 1784.86C2900.49 1784.86 2944.48 1764.24 2950.17 1752.23Z" fill="#E47747"/>
<path d="M3376.42 999.015C3372.04 947.383 3356.86 932.272 3356.86 932.272L3329.24 905.539C3329.24 905.539 3280.72 915.349 3267.57 940.226C3260.08 954.414 3260.94 963.944 3261.98 973.676C3262.76 981.008 3263.63 988.455 3261.1 998.093C3255.19 1020.52 3173.77 1015.75 3173.77 1015.75C3173.77 1015.75 3168.26 1014.21 3160.46 1011.48C3152.52 1008.7 3151.04 997.685 3141.76 992.783L3104.94 1009.26C3128.29 1022.47 3148.02 1079.61 3148.02 1079.61C3148.02 1079.61 3219.37 1115.5 3280.32 1093.18C3330.33 1074.87 3380.8 1050.65 3376.42 999.015Z" fill="#F9D1A6"/>
<path fill-rule="evenodd" clip-rule="evenodd" d="M3117.88 956.477L3131.2 950.753C3128.97 915.735 3178.93 899.572 3178.93 899.572L3134.92 911.338C3134.92 911.338 3120.31 943.406 3117.88 956.477Z" fill="#F9D1A6"/>
<path d="M3141.76 992.783C3141.76 992.783 3131.94 962.305 3131.2 950.753L3117.88 956.477C3115.07 971.578 3101.98 991.796 3104.94 1009.26C3107.9 1026.72 3082.87 985.448 3104.94 1009.26L3141.76 992.783Z" fill="#F9D1A6"/>
<path d="M3311.37 1003.25L3265.13 999.674L3264.51 996.57L3311.37 1003.25ZM3311.37 1003.25L3359.22 985.498" stroke="#F3BD9A"/>
<path d="M3255.22 1010.57L3270.08 1034.72L3291.02 1047.77" stroke="#F3BD9A"/>
<path d="M3219.17 1042.09L3224.95 1020.73L3214.46 1018.81L3219.17 1042.09Z" fill="#F3BD9A"/>
<path d="M3232.06 1075.85L3222.7 1059.56M3222.7 1059.56L3219.17 1042.09L3224.95 1020.73L3214.46 1018.81L3222.7 1059.56Z" stroke="#F3BD9A"/>
<path fill-rule="evenodd" clip-rule="evenodd" d="M3174.05 1014.45L3191.73 1026.26L3256.79 1018.33L3272.29 1005.1L3261.98 973.676C3262 973.838 3262.01 974 3262.03 974.163C3262.8 981.339 3263.58 988.668 3261.1 998.094C3255.19 1020.52 3174.05 1014.45 3174.05 1014.45Z" fill="#F3BD9A"/>
<path d="M3356.46 971.854L3365.66 945.818C3364.83 944.346 3359.67 935.97 3359.03 935.039L3329.24 905.539L3297.54 916.051L3328.41 938.024L3335.31 972.153L3315.12 987.17L3337.44 982.658L3356.46 971.854Z" fill="#FEDBBB"/>
<path fill-rule="evenodd" clip-rule="evenodd" d="M3115.14 943.272L3147.8 934.42C3179.11 897.601 3202.95 897.861 3202.95 897.861L3151.7 893.027C3151.7 893.027 3117.57 930.201 3115.14 943.272Z" fill="#F49050" fill-opacity="0.9"/>
<path d="M3147.78 973.789C3147.78 973.789 3148.53 945.972 3147.8 934.42L3115.14 943.272C3112.33 958.373 3113.94 927.355 3115.14 943.272C3116.34 959.189 3087.93 995.412 3099.64 1023.34L3147.78 973.789Z" fill="#F49050" fill-opacity="0.9"/>
<path d="M3099.64 1023.34C3108.17 1032.72 3149.25 1089.78 3160.7 1092.74L3160.85 1049L3184.47 1009.47C3176.52 1006.69 3157.06 978.691 3147.78 973.789L3099.64 1023.34Z" fill="#F49050" fill-opacity="0.9"/>
<path fill-rule="evenodd" clip-rule="evenodd" d="M3112.13 933.045L3112.06 954.912L3147.91 954.317C3145.67 919.299 3198.82 899.46 3198.82 899.46L3151.82 888.805C3151.82 888.805 3114.56 919.974 3112.13 933.045Z" fill="#E47747"/>
<path d="M2300.49 1323.14C2347.2 1345.58 2367.92 1340.18 2367.92 1340.18L2404.98 1329.95C2404.98 1329.95 2421.16 1283.17 2406.4 1259.21C2397.98 1245.55 2389.33 1241.46 2380.42 1237.41C2373.71 1234.36 2366.85 1231.33 2359.83 1224.25C2343.51 1207.78 2388.95 1140.05 2388.95 1140.05C2388.95 1140.05 2393.07 1136.09 2399.38 1130.76C2405.82 1125.32 2416.05 1129.64 2424.99 1124.13L2429.49 1084.05C2406.25 1097.46 2347 1085.45 2347 1085.45C2347 1085.45 2279.87 1128.7 2268.15 1192.54C2258.53 1244.92 2253.78 1300.7 2300.49 1323.14Z" fill="#F9D1A6"/>
<path fill-rule="evenodd" clip-rule="evenodd" d="M2468.39 1121.99L2466.56 1136.38C2497.86 1152.23 2486.42 1203.48 2486.42 1203.48L2498.63 1159.59C2498.63 1159.59 2478.42 1130.72 2468.39 1121.99Z" fill="#F9D1A6"/>
<path d="M2424.99 1124.13C2424.99 1124.13 2456.23 1131.15 2466.56 1136.38L2468.39 1121.99C2456.81 1111.9 2446.03 1090.37 2429.49 1084.05C2412.94 1077.74 2461.2 1077.13 2429.49 1084.05L2424.99 1124.13Z" fill="#F9D1A6"/>
<path d="M2329.86 1264.94L2356.42 1226.93L2359.41 1227.96L2329.86 1264.94ZM2329.86 1264.94L2320.87 1315.19" stroke="#F3BD9A"/>
<path d="M2352.07 1212.85L2323.72 1213.4L2301.85 1224.81" stroke="#F3BD9A"/>
<path d="M2343.21 1165.8L2358.68 1181.62L2365.66 1173.56L2343.21 1165.8Z" fill="#F3BD9A"/>
<path d="M2307.58 1159.76L2326.37 1159.97M2326.37 1159.97L2343.21 1165.8L2358.68 1181.62L2365.66 1173.56L2326.37 1159.97Z" stroke="#F3BD9A"/>
<path fill-rule="evenodd" clip-rule="evenodd" d="M2389.92 1140.96L2370.78 1150.19L2344.59 1210.27L2348.12 1230.34L2380.42 1237.41C2380.27 1237.34 2380.12 1237.28 2379.97 1237.21C2373.4 1234.23 2366.69 1231.18 2359.83 1224.25C2343.51 1207.78 2389.92 1140.96 2389.92 1140.96Z" fill="#F3BD9A"/>
<path d="M2334.02 1319.74L2351.78 1340.88C2353.48 1340.91 2363.31 1340.72 2364.44 1340.64L2404.98 1329.95L2412.01 1297.3L2377.41 1312.75L2344.5 1301.37L2341.81 1276.35L2334.37 1297.86L2334.02 1319.74Z" fill="#FEDBBB"/>
<path fill-rule="evenodd" clip-rule="evenodd" d="M2481.16 1126.34L2472.21 1158.97C2488.03 1204.64 2475.71 1225.04 2475.71 1225.04L2505.89 1183.34C2505.89 1183.34 2491.18 1135.07 2481.16 1126.34Z" fill="#F49050" fill-opacity="0.9"/>
<path d="M2438.3 1138.97C2438.3 1138.97 2461.88 1153.74 2472.21 1158.97L2481.16 1126.34C2469.57 1116.25 2495.48 1133.39 2481.16 1126.34C2466.84 1119.29 2450.05 1076.42 2420.04 1072.33L2438.3 1138.97Z" fill="#F49050" fill-opacity="0.9"/>
<path d="M2420.04 1072.33C2407.63 1074.92 2337.62 1081.35 2329.25 1089.71L2366.86 1112.04L2388.93 1152.46C2395.36 1147.02 2429.36 1144.48 2438.3 1138.97L2420.04 1072.33Z" fill="#F49050" fill-opacity="0.9"/>
<path fill-rule="evenodd" clip-rule="evenodd" d="M2491.5 1128.94L2472.7 1117.77L2455.01 1148.96C2486.31 1164.81 2476.42 1220.67 2476.42 1220.67L2509.46 1185.59C2509.46 1185.59 2501.53 1137.67 2491.5 1128.94Z" fill="#E47747"/>
<path fill-rule="evenodd" clip-rule="evenodd" d="M3327.27 799.793L3340.15 805.631C3381.31 712.517 3339.8 603.439 3246.87 561.346C3153.94 519.254 3044.58 559.995 3001.73 652.34L3014.38 658.071C3054 572.695 3155.11 535.029 3241.02 573.945C3326.94 612.861 3365.31 713.706 3327.27 799.793ZM3001 653.919C3001.06 653.786 3001.12 653.654 3001.18 653.521L3000.82 654.317C3000.88 654.184 3000.94 654.051 3001 653.919Z" fill="#FFE485"/>
<path fill-rule="evenodd" clip-rule="evenodd" d="M3013.58 659.82L3013.84 659.241C3013.8 659.337 3013.75 659.434 3013.71 659.531C3013.67 659.627 3013.62 659.724 3013.58 659.82ZM3014.38 658.072L3327.27 799.793C3365.31 713.706 3326.94 612.861 3241.02 573.945C3155.11 535.029 3054 572.696 3014.38 658.072Z" fill="#FFF2C2" fill-opacity="0.7"/>
<path d="M3171.13 728.219L3086 585.67M3171.13 728.219L3236.47 577.75M3171.13 728.219L3325.56 680.702" stroke="white" stroke-opacity="0.5"/>
<path d="M3171.14 728.218L3159.26 565.871M3171.14 728.218L3291.91 619.327M3171.14 728.218L3042.45 623.287M3171.14 728.218L3335.46 740.097" stroke="white" stroke-opacity="0.5"/>
<path d="M2490.07 926.203L2501.59 896.505H2521.75V932.142L2490.07 926.203Z" fill="#49A43A" stroke="#49A43A"/>
<path d="M3032.55 1429.08L3049.83 1379.59H3080.06V1438.98L3032.55 1429.08Z" fill="#49A43A" stroke="#49A43A"/>
<path d="M3095.9 1730.02V1660.72H3163.22V1743.88L3095.9 1730.02Z" fill="#CB2217" stroke="#CB2217"/>
<path d="M2890 597.549V528.254H2957.31V611.408L2890 597.549Z" fill="#CB2217" stroke="#CB2217"/>
<path d="M3183.02 1001.44V932.142H3250.33V1015.3L3183.02 1001.44Z" fill="#CB2217" stroke="#CB2217"/>
<path d="M2608.86 997.477V928.182H2676.18V1011.34L2608.86 997.477Z" fill="#CB2217" stroke="#CB2217"/>
<path d="M2876.22 1087.12L2926.13 1039.05L2972.83 1087.54L2912.94 1145.22L2876.22 1087.12Z" fill="#CB2217" stroke="#CB2217"/>
<path d="M2420.86 1578.12L2470.77 1530.05L2517.47 1578.54L2457.57 1636.22L2420.86 1578.12Z" fill="#CB2217" stroke="#CB2217"/>
<path d="M2978.23 929.352L3026.81 909.647L3046.78 932.356L3002.17 971.573L2978.23 929.352Z" fill="#49A43A" stroke="#49A43A"/>
<path d="M2832.94 1114.11L2830.68 1074.04L2852.07 1065.2L2869.45 1107.21L2832.94 1114.11Z" fill="#49A43A" stroke="#49A43A"/>
<path d="M3147.66 1319.58L3145.61 1283.3L3164.98 1275.29L3180.72 1313.33L3147.66 1319.58Z" fill="#49A43A" stroke="#49A43A"/>
<path d="M3253.22 1416.31L3250.58 1369.51C3250.51 1368.24 3251.25 1367.06 3252.43 1366.57L3275.63 1356.97C3277.16 1356.34 3278.91 1357.07 3279.55 1358.6L3299.69 1407.3C3300.42 1409.06 3299.35 1411.05 3297.48 1411.4L3256.77 1419.09C3254.99 1419.43 3253.32 1418.12 3253.22 1416.31Z" fill="#F9C561"/>
<path d="M2960.2 1733.09L2957.56 1686.29C2957.49 1685.01 2958.23 1683.83 2959.41 1683.35L2982.61 1673.75C2984.14 1673.12 2985.9 1673.84 2986.53 1675.38L3006.68 1724.08C3007.4 1725.84 3006.33 1727.82 3004.46 1728.17L2963.75 1735.87C2961.97 1736.2 2960.3 1734.9 2960.2 1733.09Z" fill="#F9C561"/>
<path d="M2731.49 770.51L2702.7 733.522C2701.91 732.516 2701.85 731.124 2702.54 730.052L2716.16 708.96C2717.06 707.568 2718.92 707.169 2720.31 708.068L2764.59 736.66C2766.19 737.693 2766.43 739.933 2765.1 741.288L2736 770.774C2734.72 772.064 2732.61 771.94 2731.49 770.51Z" fill="#F9C561"/>
<path d="M3131.42 1606L3102.62 1569.02C3101.84 1568.01 3101.78 1566.62 3102.47 1565.55L3116.09 1544.45C3116.99 1543.06 3118.85 1542.66 3120.24 1543.56L3164.52 1572.15C3166.11 1573.19 3166.36 1575.43 3165.02 1576.78L3135.92 1606.27C3134.65 1607.56 3132.53 1607.43 3131.42 1606Z" fill="#F9C561"/>
<path d="M3093.91 1332.71L3091.27 1285.9C3091.2 1284.63 3091.94 1283.45 3093.12 1282.96L3116.32 1273.37C3117.85 1272.73 3119.61 1273.46 3120.24 1274.99L3140.38 1323.7C3141.11 1325.45 3140.04 1327.44 3138.17 1327.79L3097.46 1335.48C3095.68 1335.82 3094.01 1334.52 3093.91 1332.71Z" fill="#F9C561"/>
<path d="M2383.04 905.139L2354.24 868.151C2353.46 867.145 2353.4 865.753 2354.09 864.681L2367.71 843.589C2368.61 842.198 2370.47 841.798 2371.86 842.697L2416.14 871.29C2417.73 872.322 2417.98 874.563 2416.64 875.917L2387.54 905.403C2386.27 906.693 2384.15 906.569 2383.04 905.139Z" fill="#F9C561"/>
<path d="M2598.95 984.254L2596.31 937.453C2596.24 936.179 2596.98 934.999 2598.16 934.511L2621.36 924.915C2622.89 924.281 2624.65 925.009 2625.28 926.54L2645.43 975.244C2646.15 977.002 2645.08 978.985 2643.21 979.338L2602.5 987.033C2600.72 987.369 2599.05 986.063 2598.95 984.254Z" fill="#F9C561"/>
<path d="M2606.43 695.034L2635.91 658.588C2636.71 657.596 2638.06 657.22 2639.26 657.651L2662.89 666.124C2664.45 666.683 2665.26 668.401 2664.7 669.961L2646.91 719.574C2646.27 721.365 2644.15 722.114 2642.52 721.12L2607.2 699.479C2605.65 698.532 2605.29 696.443 2606.43 695.034Z" fill="#F9C561"/>
<path d="M2846.32 920.978L2817.53 883.99C2816.74 882.984 2816.68 881.592 2817.37 880.52L2831 859.428C2831.89 858.036 2833.75 857.637 2835.14 858.536L2879.42 887.128C2881.02 888.161 2881.26 890.401 2879.93 891.756L2850.83 921.242C2849.55 922.532 2847.44 922.408 2846.32 920.978Z" fill="#F9C561"/>
<path d="M2927.17 853.421L2956.65 816.975C2957.45 815.983 2958.79 815.607 2959.99 816.038L2983.63 824.511C2985.19 825.071 2986 826.788 2985.44 828.348L2967.65 877.961C2967.01 879.753 2964.88 880.501 2963.26 879.507L2927.93 857.866C2926.39 856.919 2926.03 854.83 2927.17 853.421Z" fill="#F9C561"/>
<path d="M2695.86 1487.21L2667.06 1450.23C2666.28 1449.22 2666.21 1447.83 2666.91 1446.75L2680.53 1425.66C2681.43 1424.27 2683.28 1423.87 2684.68 1424.77L2728.95 1453.36C2730.55 1454.4 2730.8 1456.64 2729.46 1457.99L2700.36 1487.48C2699.09 1488.77 2696.97 1488.64 2695.86 1487.21Z" fill="#F9C561"/>
<path d="M2911.77 1566.33L2909.13 1519.53C2909.05 1518.25 2909.8 1517.07 2910.97 1516.58L2934.18 1506.99C2935.71 1506.35 2937.46 1507.08 2938.09 1508.61L2958.24 1557.32C2958.97 1559.08 2957.89 1561.06 2956.02 1561.41L2915.32 1569.11C2913.54 1569.44 2911.87 1568.14 2911.77 1566.33Z" fill="#F9C561"/>
<path d="M2483.68 1253.35L2513.16 1216.9C2513.96 1215.91 2515.31 1215.54 2516.51 1215.97L2540.14 1224.44C2541.7 1225 2542.51 1226.72 2541.95 1228.28L2524.16 1277.89C2523.52 1279.68 2521.4 1280.43 2519.77 1279.43L2484.45 1257.79C2482.9 1256.85 2482.54 1254.76 2483.68 1253.35Z" fill="#F9C561"/>
<path d="M3421.11 977.694L3392.31 940.706C3391.53 939.7 3391.47 938.308 3392.16 937.236L3405.78 916.144C3406.68 914.753 3408.54 914.353 3409.93 915.252L3454.2 943.845C3455.8 944.877 3456.05 947.118 3454.71 948.472L3425.61 977.958C3424.34 979.248 3422.22 979.124 3421.11 977.694Z" fill="#F9C561"/>
<path d="M2601.5 1574.62L2648.25 1577.93C2649.53 1578.02 2650.6 1578.91 2650.94 1580.14L2657.51 1604.37C2657.95 1605.97 2657 1607.62 2655.4 1608.05L2604.54 1621.86C2602.7 1622.36 2600.87 1621.04 2600.76 1619.14L2598.29 1577.79C2598.18 1575.98 2599.69 1574.49 2601.5 1574.62Z" fill="#F9C561"/>
<path d="M2989.44 1081.64L3009.59 1039.31C3010.14 1038.16 3011.36 1037.48 3012.63 1037.62L3037.59 1040.34C3039.23 1040.52 3040.42 1042 3040.24 1043.65L3034.54 1096.04C3034.33 1097.93 3032.44 1099.16 3030.63 1098.57L2991.22 1085.78C2989.5 1085.22 2988.66 1083.27 2989.44 1081.64Z" fill="#F9C561"/>
<path d="M2332.72 1540.7L2373.37 1517.36C2374.47 1516.72 2375.86 1516.86 2376.82 1517.69L2395.8 1534.13C2397.06 1535.21 2397.19 1537.11 2396.11 1538.36L2361.6 1578.2C2360.36 1579.64 2358.11 1579.57 2356.95 1578.06L2331.82 1545.12C2330.73 1543.68 2331.14 1541.6 2332.72 1540.7Z" fill="#F9C561"/>
<path d="M2270.87 1567.72L2291.02 1525.39C2291.57 1524.24 2292.79 1523.56 2294.06 1523.7L2319.02 1526.42C2320.66 1526.6 2321.85 1528.08 2321.67 1529.73L2315.96 1582.12C2315.76 1584.02 2313.87 1585.24 2312.06 1584.65L2272.65 1571.86C2270.93 1571.3 2270.09 1569.35 2270.87 1567.72Z" fill="#F9C561"/>
<path d="M2354.41 1469.79L2400.91 1475.75C2402.17 1475.91 2403.2 1476.85 2403.46 1478.1L2408.66 1502.67C2409 1504.29 2407.96 1505.88 2406.34 1506.22L2354.77 1517.13C2352.91 1517.52 2351.16 1516.1 2351.15 1514.2L2351.03 1472.77C2351.03 1470.96 2352.62 1469.56 2354.41 1469.79Z" fill="#F9C561"/>
<path d="M2288.81 1453.95L2330.44 1432.4C2331.57 1431.81 2332.95 1432.01 2333.88 1432.88L2352.12 1450.13C2353.33 1451.27 2353.38 1453.17 2352.24 1454.37L2316.04 1492.68C2314.73 1494.06 2312.48 1493.89 2311.4 1492.33L2287.73 1458.33C2286.69 1456.84 2287.2 1454.78 2288.81 1453.95Z" fill="#F9C561"/>
<path d="M3137.49 1673.6L3176.66 1647.86C3177.72 1647.16 3179.12 1647.21 3180.13 1647.98L3200.06 1663.25C3201.38 1664.26 3201.63 1666.14 3200.62 1667.45L3168.58 1709.3C3167.42 1710.81 3165.17 1710.88 3163.93 1709.44L3136.86 1678.07C3135.68 1676.7 3135.97 1674.6 3137.49 1673.6Z" fill="#F9C561"/>
<path d="M2703.64 1484.55L2727.57 1444.24C2728.22 1443.15 2729.5 1442.58 2730.75 1442.83L2755.35 1447.82C2756.98 1448.15 2758.03 1449.73 2757.7 1451.35L2747.24 1503.01C2746.86 1504.88 2744.86 1505.92 2743.11 1505.17L2705.04 1488.84C2703.38 1488.13 2702.72 1486.11 2703.64 1484.55Z" fill="#F9C561"/>
<path d="M3531.47 1093.83L3540.11 1070.73H3555.23V1098.45L3531.47 1093.83Z" fill="#49A43A" stroke="#49A43A"/>
<path d="M2676.18 1539.95L2693.45 1490.46H2723.69V1549.85L2676.18 1539.95Z" fill="#49A43A" stroke="#49A43A"/>
<path d="M2500.49 1335.72L2541.51 1321.38L2557.43 1341.19L2519.12 1371.98L2500.49 1335.72Z" fill="#49A43A" stroke="#49A43A"/>
<path fill-rule="evenodd" clip-rule="evenodd" d="M2354.28 1357.92L2348.75 1344.89C2255.43 1385.58 2212.15 1493.96 2252.06 1587.85C2291.97 1681.74 2400.05 1725.77 2494.1 1686.81L2488.67 1674.02C2401.72 1710.05 2301.79 1669.34 2264.89 1582.53C2227.99 1495.73 2268.01 1395.53 2354.28 1357.92ZM2495.7 1686.13L2495.4 1686.26L2496 1686L2495.7 1686.13Z" fill="#FFE485"/>
<path fill-rule="evenodd" clip-rule="evenodd" d="M2490.4 1673.29L2489.89 1673.51C2489.98 1673.47 2490.06 1673.44 2490.15 1673.4C2490.23 1673.37 2490.32 1673.33 2490.4 1673.29ZM2488.67 1674.02L2354.29 1357.91C2268.01 1395.53 2227.99 1495.73 2264.89 1582.53C2301.79 1669.34 2401.72 1710.05 2488.67 1674.02Z" fill="#FFF2C2" fill-opacity="0.7"/>
<path d="M2420.76 1516.28L2386.94 1678.84M2420.76 1516.28L2270.82 1582.82M2420.76 1516.28L2274.93 1446.73" stroke="white" stroke-opacity="0.5"/>
<path d="M2420.76 1516.28L2319.62 1643.83M2420.76 1516.28L2258.16 1514.69M2420.76 1516.28L2444.46 1680.63M2420.76 1516.28L2307.84 1396.31" stroke="white" stroke-opacity="0.5"/>
<path fill-rule="evenodd" clip-rule="evenodd" d="M2852.67 1056.77C2852.67 1056.77 2999.7 1028.69 3059.24 955.93C3110.51 893.286 3137.33 766.79 3122.78 780.226L3019.71 885.749L2997.53 936.446L2950.53 975.487L2933.97 973.53L2926.26 972.618L2912.59 971.002L2908.74 933.582L2930.6 885.56L2939.55 868.717L2971.88 847.966L3018.99 719.244C3017.37 703.488 2902.97 776.479 2866.66 844.365C2827.46 917.67 2852.67 1056.77 2852.67 1056.77Z" fill="#3A4E75"/>
<path fill-rule="evenodd" clip-rule="evenodd" d="M2852.67 1056.77L2950.53 975.487L2933.97 973.53L2926.26 972.618L2912.59 971.002L2908.74 933.582L2852.67 1056.77ZM2971.88 847.966L3018.99 719.244L2939.55 868.717L2971.88 847.966ZM3008.53 927.307L2997.53 936.446L3019.71 885.749L3122.78 780.226L3008.53 927.307Z" fill="black"/>
<path d="M2950.53 975.487L2997.53 936.446L3019.71 885.749L2933.97 973.53L2950.53 975.487Z" fill="#EC8E02"/>
<path d="M3045.88 825.945L2998.61 830.803L2971.88 847.966L2926.26 972.618L2933.97 973.53L3019.71 885.749L3045.88 825.945Z" fill="#EC8E02"/>
<path d="M2939.55 868.717L2930.6 885.56L2908.74 933.582L2912.59 971.002L2926.26 972.618L2971.88 847.966L2939.55 868.717Z" fill="#EC8E02"/>
<path d="M2950.53 975.487L2997.53 936.446L3019.71 885.749L2933.97 973.53L2950.53 975.487Z" fill="#804C00"/>
<path fill-rule="evenodd" clip-rule="evenodd" d="M3045.88 825.945L2980.34 889.795L2933.97 973.53L3019.71 885.749L3045.88 825.945Z" fill="#804C00"/>
<path d="M3122.69 783.654L3010.2 928.563L2859.84 1053.48" stroke="white" stroke-width="0.5"/>
<path d="M3016.32 716.966L2928.33 887.221L2853.32 1048.18" stroke="white" stroke-width="0.5"/>
<path fill-rule="evenodd" clip-rule="evenodd" d="M2729.77 1343.88C2729.77 1343.88 2581.42 1363.83 2517.96 1433.2C2463.32 1492.93 2429.58 1617.75 2444.84 1605.14L2553.56 1505.45L2578.5 1456.05L2627.58 1419.66L2644.01 1422.52L2651.66 1423.86L2665.22 1426.23L2667 1463.8L2642.53 1510.55L2632.66 1526.87L2599.24 1545.81L2545.11 1671.74C2545.86 1687.56 2664.12 1620.98 2704.1 1555.2C2747.28 1484.16 2729.77 1343.88 2729.77 1343.88Z" fill="#3A4E75"/>
<path fill-rule="evenodd" clip-rule="evenodd" d="M2729.77 1343.88L2627.58 1419.66L2644.01 1422.52L2651.66 1423.86L2665.22 1426.23L2667 1463.8L2729.77 1343.88ZM2599.24 1545.81L2545.11 1671.74L2632.66 1526.87L2599.24 1545.81ZM2567.01 1464.57L2578.5 1456.05L2553.56 1505.45L2444.84 1605.14L2567.01 1464.57Z" fill="black"/>
<path d="M2627.58 1419.66L2578.5 1456.05L2553.56 1505.45L2644.01 1422.52L2627.58 1419.66Z" fill="#EC8E02"/>
<path d="M2524.14 1563.72L2571.6 1561.48L2599.24 1545.81L2651.66 1423.86L2644.01 1422.52L2553.56 1505.45L2524.14 1563.72Z" fill="#EC8E02"/>
<path d="M2632.66 1526.87L2642.53 1510.55L2667 1463.8L2665.22 1426.23L2651.66 1423.86L2599.24 1545.81L2632.66 1526.87Z" fill="#EC8E02"/>
<path d="M2627.58 1419.66L2578.5 1456.05L2553.56 1505.45L2644.01 1422.52L2627.58 1419.66Z" fill="#804C00"/>
<path fill-rule="evenodd" clip-rule="evenodd" d="M2524.14 1563.72L2593.09 1503.58L2644.01 1422.52L2553.56 1505.45L2524.14 1563.72Z" fill="#804C00"/>
<path d="M2445.12 1601.72L2565.42 1463.23L2722.43 1346.78" stroke="white" stroke-width="0.5"/>
<path d="M2547.66 1674.17L2644.89 1509.01L2728.64 1352.43" stroke="white" stroke-width="0.5"/>
<path fill-rule="evenodd" clip-rule="evenodd" d="M2933.93 1368.8C2933.93 1368.8 2934.82 1518.49 2995.54 1590.27C3047.81 1652.07 3167.33 1701.44 3156.76 1684.7L3071.73 1564.16L3025.92 1533.13L2996.07 1479.81L3001 1463.89L3003.3 1456.47L3007.38 1443.32L3044.87 1446.34L3088.12 1476.57L3103.06 1488.43L3117.58 1523.99L3235.6 1593.73C3251.38 1595 3200.41 1469.23 3140.26 1421.18C3075.3 1369.31 2933.93 1368.8 2933.93 1368.8Z" fill="#3A4E75"/>
<path fill-rule="evenodd" clip-rule="evenodd" d="M2933.93 1368.8L2996.07 1479.81L3001 1463.89L3003.3 1456.47L3007.38 1443.32L3044.87 1446.34L2933.93 1368.8ZM3117.58 1523.99L3235.6 1593.73L3103.06 1488.43L3117.58 1523.99ZM3032.9 1545.61L3025.92 1533.13L3071.73 1564.16L3156.76 1684.7L3032.9 1545.61Z" fill="black"/>
<path d="M2996.07 1479.81L3025.92 1533.13L3071.73 1564.16L3001 1463.89L2996.07 1479.81Z" fill="#EC8E02"/>
<path d="M3125.78 1600.77L3129.6 1553.4L3117.58 1523.99L3003.3 1456.47L3001 1463.89L3071.73 1564.16L3125.78 1600.77Z" fill="#EC8E02"/>
<path d="M3103.06 1488.43L3088.12 1476.57L3044.87 1446.34L3007.38 1443.32L3003.3 1456.47L3117.58 1523.99L3103.06 1488.43Z" fill="#EC8E02"/>
<path d="M2996.07 1479.81L3025.92 1533.13L3071.73 1564.16L3001 1463.89L2996.07 1479.81Z" fill="#804C00"/>
<path fill-rule="evenodd" clip-rule="evenodd" d="M3125.78 1600.77L3074.91 1524.71L3001 1463.89L3071.73 1564.16L3125.78 1600.77Z" fill="#804C00"/>
<path d="M3153.41 1683.98L3031.36 1547.02L2935.86 1376.45" stroke="white" stroke-width="0.5"/>
<path d="M3238.32 1591.51L3086.9 1474.04L2942.26 1371.01" stroke="white" stroke-width="0.5"/>
<path d="M2591.67 713.741C2585.73 765.217 2597.61 783.035 2597.61 783.035L2619.39 814.713C2619.39 814.713 2668.88 814.713 2686.7 792.934C2696.86 780.514 2697.9 771.001 2698.82 761.257C2699.5 753.915 2700.12 746.443 2704.52 737.499C2714.76 716.685 2793.61 737.499 2793.61 737.499C2793.61 737.499 2798.71 740.097 2805.81 744.318C2813.05 748.622 2822.37 754.613 2830.5 761.257L2874.74 723.64C2854.47 706.066 2844.72 686.023 2844.72 686.023C2844.72 686.023 2768.69 630.695 2704.52 640.487C2651.88 648.52 2597.61 662.265 2591.67 713.741Z" fill="#F9D1A6"/>
<path fill-rule="evenodd" clip-rule="evenodd" d="M2880.36 804.813H2830.5C2825.75 839.579 2765.53 850.35 2765.53 850.35H2815.03C2815.03 850.35 2875.39 817.143 2880.36 804.813Z" fill="#F9D1A6"/>
<path d="M2830.5 761.257C2836.31 766.008 2830.5 783.035 2830.5 783.035C2830.5 783.035 2832.06 793.344 2830.5 804.813H2880.36C2886.11 790.568 2882.46 788.859 2883.02 771.156C2883.58 753.454 2891.65 751.352 2874.74 723.64L2830.5 761.257Z" fill="#F9D1A6"/>
<path fill-rule="evenodd" clip-rule="evenodd" d="M2880.36 804.813L2855.31 809.591L2830.5 804.813C2825.75 839.579 2765.53 850.35 2765.53 850.35H2815.03C2815.03 850.35 2875.39 817.143 2880.36 804.813Z" fill="#F49050" fill-opacity="0.9"/>
<path d="M2823.63 766.035C2829.44 770.786 2830.5 783.035 2830.5 783.035C2830.5 783.035 2832.06 793.344 2830.5 804.813L2855.31 809.591L2880.36 804.813C2886.11 790.569 2888.96 789.793 2890.94 773.954C2892.92 758.115 2888.96 754.156 2883.02 724.458L2823.63 766.035Z" fill="#F49050" fill-opacity="0.9"/>
<path d="M2883.02 724.458C2876.52 713.574 2854.07 682.115 2843.43 676.942L2830.5 718.519L2799.87 748.216C2807.11 752.52 2815.5 759.391 2823.63 766.035L2883.02 724.458Z" fill="#F49050" fill-opacity="0.9"/>
<path fill-rule="evenodd" clip-rule="evenodd" d="M2880.36 804.813L2855.31 809.591L2830.5 804.813C2825.75 839.579 2765.53 850.35 2765.53 850.35H2815.03C2815.03 850.35 2875.39 817.143 2880.36 804.813Z" fill="#E47747"/>
<path d="M2656.27 722.478L2700.88 735.149V738.317L2656.27 722.478ZM2656.27 722.478L2605.85 730.398" stroke="#F3BD9A"/>
<path d="M2712.76 726.438L2702.97 699.82L2685.04 682.882" stroke="#F3BD9A"/>
<path d="M2754.33 702.68L2744.43 722.478L2754.33 726.438V702.68Z" fill="#F3BD9A"/>
<path d="M2748.39 667.043L2754.33 684.861M2754.33 684.861V702.68L2744.43 722.478L2754.33 726.438V684.861Z" stroke="#F3BD9A"/>
<path fill-rule="evenodd" clip-rule="evenodd" d="M2805.81 744.318L2778.09 723.64L2712.76 718.519L2694.94 728.418L2698.82 761.257C2698.83 761.095 2698.85 760.932 2698.86 760.77C2699.53 753.584 2700.22 746.245 2704.52 737.499C2714.76 716.685 2793.61 737.499 2793.61 737.499C2793.61 737.499 2798.71 740.097 2805.81 744.318Z" fill="#F3BD9A"/>
<path d="M2605.85 744.318L2591.67 768.014C2592.2 769.622 2595.59 778.854 2596.03 779.893L2619.39 814.712L2652.54 810.692L2626.63 783.035V748.216L2649.4 737.498H2626.63L2605.85 744.318Z" fill="#FEDBBB"/>
<path d="M2659.46 1544.59L2671.69 1499.33C2672.02 1498.1 2673.1 1497.21 2674.37 1497.12L2699.41 1495.32C2701.07 1495.2 2702.5 1496.44 2702.62 1498.09L2706.41 1550.66C2706.55 1552.56 2704.91 1554.11 2703.02 1553.85L2661.96 1548.34C2660.17 1548.1 2658.99 1546.33 2659.46 1544.59Z" fill="#F9C561"/>
<path d="M1184 2744C1174.67 2744 1166.83 2747.67 1160.5 2755C1154.17 2762.33 1149.17 2771.33 1145.5 2782C1142.17 2792.67 1139.67 2804.33 1138 2817C1136.67 2829.33 1136 2841.33 1136 2853C1136 2883.33 1141 2909.83 1151 2932.5C1161.33 2954.83 1179.33 2966 1205 2966C1223.33 2966 1239.33 2960.33 1253 2949C1266.67 2937.33 1277 2922.67 1284 2905L1291.5 2909C1269.17 2958.33 1229.17 2983 1171.5 2983C1133.5 2983 1101.17 2971.83 1074.5 2949.5C1047.83 2926.83 1034.5 2897 1034.5 2860C1034.5 2822.67 1047.5 2792.67 1073.5 2770C1099.83 2747.33 1132.5 2736 1171.5 2736C1186.17 2736 1199.67 2737.67 1212 2741C1224.33 2744 1235.83 2748.33 1246.5 2754C1257.5 2759.33 1267.83 2767.17 1277.5 2777.5C1287.5 2787.5 1292.5 2799.33 1292.5 2813C1292.5 2825.33 1288.67 2835.33 1281 2843C1273.33 2850.33 1262 2854 1247 2854C1234 2854 1222.17 2849.5 1211.5 2840.5C1201.17 2831.17 1196 2820.67 1196 2809C1196 2800 1197.83 2791.33 1201.5 2783C1205.17 2774.67 1207 2767.67 1207 2762C1207 2756.67 1205 2752.33 1201 2749C1197 2745.67 1191.33 2744 1184 2744ZM1619.6 2978H1488.6V2946C1480.93 2958 1471.43 2967.17 1460.1 2973.5C1449.1 2979.83 1433.77 2983 1414.1 2983C1391.1 2983 1370.77 2976.17 1353.1 2962.5C1335.1 2949.17 1326.1 2930.67 1326.1 2907V2796L1325.6 2775.5C1325.6 2766.5 1324.1 2760.33 1321.1 2757C1318.43 2753.33 1312.43 2751 1303.1 2750L1289.1 2749V2741H1422.1V2904.5L1422.6 2925C1422.6 2938.67 1424.93 2949 1429.6 2956C1434.6 2962.67 1441.93 2966 1451.6 2966C1462.27 2966 1469.93 2963 1474.6 2957C1479.6 2951 1483.6 2944.83 1486.6 2938.5V2803.5L1485.6 2780.5C1485.6 2769.5 1483.77 2762 1480.1 2758C1476.43 2754 1469.1 2751.33 1458.1 2750L1442.6 2749V2741H1582.6V2923L1583.1 2943.5C1583.1 2952.5 1584.43 2958.83 1587.1 2962.5C1590.1 2965.83 1596.27 2968 1605.6 2969L1619.6 2970V2978ZM1785.77 2978H1623.77V2970L1635.77 2969.5C1645.44 2968.5 1651.27 2966.17 1653.27 2962.5C1655.27 2958.83 1656.27 2950.83 1656.27 2938.5L1656.77 2915.5V2668.5L1656.27 2648C1655.61 2640 1654.61 2634 1653.27 2630C1651.94 2626 1645.94 2623.5 1635.27 2622.5L1618.27 2621.5V2613.5H1752.77V2915.5L1753.27 2938.5C1753.27 2950.5 1754.27 2958.5 1756.27 2962.5C1758.27 2966.17 1764.11 2968.5 1773.77 2969.5L1785.77 2970V2978ZM1821.23 2760H1787.23V2746.5C1798.56 2743.5 1810.4 2738 1822.73 2730C1835.06 2721.67 1846.73 2712.17 1857.73 2701.5C1869.06 2690.5 1878.4 2679.83 1885.73 2669.5C1893.4 2659.17 1899.23 2649.83 1903.23 2641.5H1917.23V2741H1982.73L1975.73 2760H1917.23V2896L1918.23 2921.5C1918.23 2935.83 1921.4 2946.67 1927.73 2954C1934.06 2961.33 1942.06 2965 1951.73 2965C1964.73 2965 1974.23 2959.67 1980.23 2949C1986.23 2938 1989.23 2925.83 1989.23 2912.5H1996.23C1996.23 2931.17 1990.73 2947.67 1979.73 2962C1968.73 2976 1945.06 2983 1908.73 2983C1885.73 2983 1865.4 2977 1847.73 2965C1830.06 2953 1821.23 2936.17 1821.23 2914.5V2760ZM2312.96 2978H2181.96V2946C2174.29 2958 2164.79 2967.17 2153.46 2973.5C2142.46 2979.83 2127.13 2983 2107.46 2983C2084.46 2983 2064.13 2976.17 2046.46 2962.5C2028.46 2949.17 2019.46 2930.67 2019.46 2907V2796L2018.96 2775.5C2018.96 2766.5 2017.46 2760.33 2014.46 2757C2011.79 2753.33 2005.79 2751 1996.46 2750L1982.46 2749V2741H2115.46V2904.5L2115.96 2925C2115.96 2938.67 2118.29 2949 2122.96 2956C2127.96 2962.67 2135.29 2966 2144.96 2966C2155.63 2966 2163.29 2963 2167.96 2957C2172.96 2951 2176.96 2944.83 2179.96 2938.5V2803.5L2178.96 2780.5C2178.96 2769.5 2177.13 2762 2173.46 2758C2169.79 2754 2162.46 2751.33 2151.46 2750L2135.96 2749V2741H2275.96V2923L2276.46 2943.5C2276.46 2952.5 2277.79 2958.83 2280.46 2962.5C2283.46 2965.83 2289.63 2968 2298.96 2969L2312.96 2970V2978ZM2316.13 2978V2970L2329.63 2969.5C2339.3 2968.5 2345.13 2966.17 2347.13 2962.5C2349.13 2958.83 2350.13 2950.83 2350.13 2938.5L2350.63 2915.5V2796L2350.13 2775.5C2349.47 2767.5 2348.47 2761.5 2347.13 2757.5C2345.8 2753.5 2339.8 2751 2329.13 2750L2316.13 2749V2741H2445.63V2783C2447.97 2777 2452.97 2768 2460.63 2756C2468.3 2744 2485.8 2738 2513.13 2738C2529.13 2738 2542.63 2743.67 2553.63 2755C2564.97 2766 2570.63 2779.17 2570.63 2794.5C2570.63 2809.83 2565.3 2822.67 2554.63 2833C2544.3 2843 2531.47 2848 2516.13 2848C2503.47 2848 2492.47 2843.67 2483.13 2835C2474.13 2826 2469.63 2815.83 2469.63 2804.5C2469.63 2796.17 2471.13 2788.5 2474.13 2781.5C2477.47 2775.17 2480.8 2768.67 2484.13 2762C2482.47 2759.67 2480.8 2758.5 2479.13 2758.5C2470.47 2758.5 2462.8 2763.67 2456.13 2774C2449.8 2784.33 2446.63 2794 2446.63 2803V2918.5L2447.13 2943.5C2447.13 2952.83 2448.3 2959.17 2450.63 2962.5C2452.97 2965.83 2458.8 2968 2468.13 2969L2483.13 2970V2978H2316.13ZM2827.16 2953C2835.16 2953 2840.66 2948.17 2843.66 2938.5C2846.99 2928.5 2848.66 2916.67 2848.66 2903H2855.66C2855.66 2932.33 2850.32 2951.67 2839.66 2961C2829.32 2970.33 2819.99 2976.17 2811.66 2978.5C2803.32 2981.17 2792.66 2982.5 2779.66 2982.5C2765.32 2982.5 2752.49 2978.83 2741.16 2971.5C2730.16 2964.17 2723.49 2954.33 2721.16 2942C2715.82 2955.67 2706.82 2966 2694.16 2973C2681.82 2979.67 2665.66 2983 2645.66 2983C2624.32 2983 2606.99 2977.17 2593.66 2965.5C2580.32 2953.83 2573.66 2937.67 2573.66 2917C2573.66 2900.33 2577.82 2887 2586.16 2877C2594.49 2866.67 2602.99 2860.33 2611.66 2858C2620.32 2855.67 2633.66 2853.67 2651.66 2852C2669.66 2850.33 2682.82 2848.5 2691.16 2846.5C2699.82 2844.17 2705.99 2841.83 2709.66 2839.5C2713.32 2836.83 2715.16 2832.5 2715.16 2826.5L2714.66 2781C2714.66 2768 2712.99 2758.67 2709.66 2753C2706.32 2747.33 2699.32 2744.5 2688.66 2744.5C2681.99 2744.5 2676.32 2746 2671.66 2749C2667.32 2752 2665.16 2755.83 2665.16 2760.5C2665.16 2764.17 2668.66 2768.83 2675.66 2774.5C2682.99 2779.83 2686.66 2788 2686.66 2799C2686.66 2809.33 2681.99 2818.5 2672.66 2826.5C2663.66 2834.5 2648.82 2838.5 2628.16 2838.5C2616.82 2838.5 2606.82 2835.5 2598.16 2829.5C2589.82 2823.17 2585.66 2814.83 2585.66 2804.5C2585.66 2783.83 2597.16 2767.33 2620.16 2755C2643.49 2742.67 2671.16 2736.5 2703.16 2736.5C2730.16 2736.5 2754.99 2742.17 2777.66 2753.5C2800.32 2764.5 2811.66 2781.67 2811.66 2805V2919.5C2811.66 2930.17 2812.66 2938.33 2814.66 2944C2816.32 2950 2820.49 2953 2827.16 2953ZM2715.16 2938.5V2843L2713.66 2842.5C2710.66 2846.5 2704.99 2850.33 2696.66 2854C2688.66 2857.33 2682.99 2860.67 2679.66 2864C2676.66 2867.33 2674.16 2873.83 2672.16 2883.5C2670.49 2892.83 2669.66 2902.5 2669.66 2912.5C2669.66 2927.5 2670.82 2939.5 2673.16 2948.5C2675.49 2957.5 2680.82 2962 2689.16 2962C2695.49 2962 2700.99 2959.5 2705.66 2954.5C2710.66 2949.5 2713.82 2944.17 2715.16 2938.5Z" fill="black"/>
<path d="M1443.23 1710.82C1813.23 1710.82 1459.49 2022.94 1250.11 2232.33C975.044 2456.02 699.984 2456.02 699.984 2456.02C699.984 2456.02 699.984 2380.88 699.984 2264.84C699.985 1690.01 611.496 2033.35 1103.14 2033.35C1425.62 2033.35 1491.49 1857.43 1443.23 1769.34C1431.52 1747.96 913.436 2089.98 882.704 2080.17C872.61 2076.94 932.04 1955.19 1017.31 1888.99C1128.62 1802.56 1363.25 1710.82 1363.25 1710.82C1363.25 1710.82 1418.13 1710.82 1443.23 1710.82Z" fill="#91AC88"/>
<path fill-rule="evenodd" clip-rule="evenodd" d="M985.154 2314.12C1226.82 2174.6 1715.5 1521.31 1462.02 1378.25C1395.75 1324.31 1342.5 1357.46 1262.58 1407.22C1207.26 1441.67 1139.16 1484.07 1045.12 1511.03C973.934 1531.44 920.814 1518.7 860.554 1504.24C768.901 1482.26 660.73 1456.31 447.341 1537.03C205.678 1676.55 134.315 1967.99 273.84 2209.66C413.364 2451.32 743.491 2453.64 985.154 2314.12ZM1315.56 1822.82C1236.97 1905.64 1120.73 1946.07 1058.62 1937.09C1048.95 1935.69 1040.59 1933.09 1033.89 1929.27C1027.42 1925.58 1022.51 1920.75 1019.45 1914.75C997.937 1886.9 1041.02 1866.79 1093.99 1842.06C1135.87 1822.51 1183.92 1800.07 1211.13 1768.66C1247.38 1726.81 1267.34 1668.14 1284.42 1617.98C1301.19 1568.69 1315.18 1527.6 1339.07 1518.72C1421.09 1522.96 1418.21 1714.65 1315.56 1822.82Z" fill="#B19E79"/>
<path fill-rule="evenodd" clip-rule="evenodd" d="M973.799 2260.73C1215.46 2121.2 1704.15 1467.92 1450.66 1324.85C1384.4 1270.91 1331.14 1304.07 1251.23 1353.83C1195.9 1388.27 1127.81 1430.67 1033.77 1457.64C962.579 1478.05 909.459 1465.31 849.199 1450.85C757.546 1428.86 649.375 1402.91 435.986 1483.64C194.323 1623.16 122.96 1914.6 262.485 2156.26C402.009 2397.93 732.136 2400.25 973.799 2260.73ZM1304.2 1769.43C1406.85 1661.26 1409.73 1469.57 1327.71 1465.33C1303.82 1474.21 1289.84 1515.29 1273.06 1564.58C1255.99 1614.75 1236.02 1673.42 1199.78 1715.26C1172.56 1746.68 1124.51 1769.12 1082.64 1788.67C1029.66 1813.4 986.581 1833.51 1008.09 1861.36C1017.62 1880.03 1045.17 1887.4 1081.32 1884.2C1120.82 1880.7 1170.6 1864.57 1218.37 1836.76C1248.86 1819 1278.54 1796.48 1304.2 1769.43Z" fill="#E3CB9C"/>
<path d="M891.285 1599.37C902.95 1619.58 862.026 1628.42 896.654 1661.5C931.566 1721.97 843.783 1746.58 821.156 1759.64C796.454 1773.9 782.344 1751.94 758.925 1734.52C741.755 1721.74 713.485 1717.93 703.02 1699.8C678.28 1656.95 703.318 1654.41 746.13 1629.69C762.034 1620.51 790.535 1526.61 816.849 1572.19C825.67 1624.64 875.737 1572.44 891.285 1599.37Z" fill="#A70C0C"/>
<path d="M770.338 2183.28C751.719 2169.23 785.952 2145.12 741.165 2128.17C685.435 2086.11 770.486 2077.82 772.409 2008.36C789.592 1985.59 811.15 2000.31 839.51 2007.22C860.303 2012.29 887.82 2004.77 904.526 2017.38C944.019 2047.19 921.957 2059.3 892.176 2098.75C881.111 2113.41 891.491 2210.99 849.485 2179.29C807.243 2179.23 795.159 2202.02 770.338 2183.28Z" fill="white"/>
<path d="M518.997 1702.18C541.503 1741.16 513.991 1721.23 524.367 1764.3C540.615 1792.45 497.176 1860.32 448.868 1862.45C422.684 1863.6 410.057 1854.75 386.637 1837.32C369.467 1824.55 341.197 1820.74 330.732 1802.61C305.992 1759.76 331.03 1757.21 373.842 1732.5C389.747 1723.31 401.97 1669.23 444.561 1674.99C496.044 1697.35 503.449 1675.25 518.997 1702.18Z" fill="#D6AA55"/>
<path d="M565.413 2204.38C523.23 2220.09 547.459 2196.27 503.261 2199.34C472.807 2210.67 413.104 2156.55 419.051 2108.56C422.274 2082.55 433.101 2071.57 454.18 2051.38C469.633 2036.57 478.095 2009.33 497.71 2002.03C544.08 1984.76 542.424 2009.87 559.673 2056.2C566.081 2073.41 617.376 2094.47 604.61 2135.5C573.991 2182.55 594.556 2193.53 565.413 2204.38Z" fill="#0E417B"/>
</svg>
