<svg width="2160" height="2160" viewBox="0 0 2160 2160" fill="none" xmlns="http://www.w3.org/2000/svg">
<rect width="2160" height="2160" fill="#FF9892"/>
<path d="M460.359 927.32C460.359 936.695 461.401 944.247 463.484 949.977C465.568 955.706 469.214 960.198 474.422 963.453C474.552 964.104 474.617 965.341 474.617 967.164V970.68C474.617 988.648 469.409 1002.65 458.992 1012.67C448.706 1022.57 435.359 1027.52 418.953 1027.52C402.677 1027.52 389.461 1022.89 379.305 1013.65C367.456 1003.1 361.531 987.086 361.531 965.602C361.531 956.487 361.922 948.479 362.703 941.578C363.615 934.547 364.201 929.534 364.461 926.539C364.852 923.544 365.242 920.745 365.633 918.141C366.023 915.536 366.219 911.695 366.219 906.617C366.219 901.539 365.503 897.893 364.07 895.68C362.768 893.466 360.88 892.359 358.406 892.359C356.062 892.359 353.979 892.88 352.156 893.922L354.695 925.758C352.352 938.909 351.18 952.841 351.18 967.555C351.18 982.268 354.5 995.68 361.141 1007.79C348.38 1020.94 330.477 1027.52 307.43 1027.52C294.279 1027.52 282.885 1024.07 273.25 1017.16C262.052 1009.35 256.453 999 256.453 986.109V758.18C262.703 754.534 270.19 751.539 278.914 749.195C287.768 746.852 296.688 745.68 305.672 745.68C320.646 745.68 333.016 748.609 342.781 754.469C353.849 761.37 359.383 771.266 359.383 784.156V802.711C348.055 803.362 337.182 806.617 326.766 812.477C317.781 817.685 313.289 822.438 313.289 826.734C313.289 828.167 313.81 829.469 314.852 830.641C315.893 831.682 317.13 832.333 318.562 832.594C324.031 826.214 331.714 820.875 341.609 816.578C351.635 812.281 363.484 810.133 377.156 810.133C390.828 810.133 403.133 812.216 414.07 816.383C427.872 821.591 438.745 829.534 446.688 840.211C456.193 853.232 460.945 869.573 460.945 889.234L460.359 927.32ZM678.719 927.32C678.719 936.695 679.76 944.247 681.844 949.977C683.927 955.706 687.573 960.198 692.781 963.453C692.911 964.104 692.977 965.341 692.977 967.164V970.68C692.977 989.169 687.378 1003.56 676.18 1013.84C666.284 1022.96 654.044 1027.52 639.461 1027.52C629.565 1027.52 620.516 1025.17 612.312 1020.48C604.109 1015.8 598.25 1009.03 594.734 1000.17C590.307 1000.17 588.094 1002.32 588.094 1006.62C588.094 1010.26 590.372 1014.36 594.93 1018.92C586.466 1024.65 573.706 1027.52 556.648 1027.52C532.56 1027.52 513.289 1021.01 498.836 1007.98C484.513 994.833 477.352 976.539 477.352 953.102C477.352 929.534 484.969 911.305 500.203 898.414C514.135 886.826 532.169 881.031 554.305 881.031C561.857 881.031 569.148 881.552 576.18 882.594C580.867 883.505 583.406 884.026 583.797 884.156C584.188 882.854 584.383 881.747 584.383 880.836C584.383 877.451 581.518 875.172 575.789 874C570.06 872.828 562.573 872.242 553.328 872.242C533.667 872.242 516.87 876.214 502.938 884.156C496.557 873.349 493.367 859.677 493.367 843.141C493.367 833.766 494.539 826.799 496.883 822.242C506.258 817.945 518.172 814.169 532.625 810.914C547.078 807.529 562.312 805.836 578.328 805.836C611.401 805.836 636.401 813.062 653.328 827.516C670.255 841.969 678.719 862.477 678.719 889.039V927.32ZM577.352 936.891C571.883 936.891 569.148 939.365 569.148 944.312C569.148 949 572.339 951.344 578.719 951.344C583.146 951.344 586.401 950.302 588.484 948.219C590.568 946.005 591.609 942.229 591.609 936.891C591.609 936.891 586.857 936.891 577.352 936.891ZM907.82 927.32C907.82 936.695 908.862 944.247 910.945 949.977C913.029 955.706 916.674 960.198 921.883 963.453C922.013 964.104 922.078 965.341 922.078 967.164V970.68C922.078 988.648 916.87 1002.65 906.453 1012.67C896.167 1022.57 882.82 1027.52 866.414 1027.52C850.138 1027.52 836.922 1022.89 826.766 1013.65C814.917 1003.1 808.992 987.086 808.992 965.602C808.992 956.487 809.383 948.479 810.164 941.578C811.076 934.547 811.661 929.534 811.922 926.539C812.312 923.544 812.703 920.745 813.094 918.141C813.484 915.536 813.68 911.695 813.68 906.617C813.68 901.539 812.964 897.893 811.531 895.68C810.229 893.466 808.341 892.359 805.867 892.359C803.523 892.359 801.44 892.88 799.617 893.922L802.156 925.758C799.812 938.909 798.641 952.841 798.641 967.555C798.641 982.268 801.961 995.68 808.602 1007.79C795.841 1020.94 777.938 1027.52 754.891 1027.52C741.74 1027.52 730.346 1024.07 720.711 1017.16C709.513 1009.35 703.914 999 703.914 986.109V891.578C696.232 880.771 692.391 867.49 692.391 851.734C692.391 835.849 696.232 822.112 703.914 810.523H738.68C747.924 810.523 755.802 813.974 762.312 820.875C756.583 826.214 753.719 830.641 753.719 834.156C753.719 838.193 755.997 840.211 760.555 840.211C766.284 830.315 775.008 822.112 786.727 815.602C798.576 809.091 811.987 805.836 826.961 805.836C849.487 805.836 867.781 811.37 881.844 822.438C899.552 836.37 908.406 857.984 908.406 887.281L907.82 927.32ZM1055.87 861.305H1171.69C1179.11 872.112 1182.82 885.263 1182.82 900.758C1182.82 916.122 1179.63 928.622 1173.25 938.258H1165.24V996.852C1139.59 1019.12 1105.74 1030.25 1063.68 1030.25C1038.03 1030.25 1015.24 1025.69 995.32 1016.58C973.576 1006.81 956.714 992.555 944.734 973.805C931.583 953.232 925.008 927.971 925.008 898.023C925.008 855.445 937.768 822.503 963.289 799.195C987.508 776.93 1020.32 765.797 1061.73 765.797C1082.17 765.797 1101.44 768.857 1119.54 774.977C1137.77 781.096 1152.16 788.714 1162.7 797.828C1162.7 805.641 1161.73 815.211 1159.77 826.539C1157.95 837.867 1155.61 846.526 1152.74 852.516H1049.81C1045.65 856.943 1041.67 863.323 1037.9 871.656C1034.25 879.99 1032.43 889.56 1032.43 900.367C1032.43 915.211 1036.14 926.865 1043.56 935.328C1050.07 943.01 1058.41 946.852 1068.56 946.852C1072.73 946.852 1074.81 945.419 1074.81 942.555V938.062H1072.66C1064.07 938.062 1056.91 934.742 1051.18 928.102C1045.58 921.331 1042.78 911.695 1042.78 899.195C1042.78 883.57 1047.14 870.94 1055.87 861.305ZM1325.59 889.234C1325.59 876.214 1325.01 867.294 1323.84 862.477C1322.66 857.529 1320.52 855.055 1317.39 855.055C1315.44 855.055 1313.68 855.706 1312.12 857.008C1312.38 859.352 1312.77 862.477 1313.29 866.383C1313.81 870.289 1314.07 878.622 1314.07 891.383V904.078C1314.07 912.932 1313.88 919.378 1313.48 923.414C1313.09 927.451 1312.77 930.901 1312.51 933.766C1312.38 935.328 1312.25 936.891 1312.12 938.453C1313.68 939.755 1315.44 940.406 1317.39 940.406C1320.52 940.406 1322.66 937.997 1323.84 933.18C1325.01 928.232 1325.59 919.247 1325.59 906.227V889.234ZM1317.78 1030.25C1294.6 1030.25 1273.32 1025.5 1253.91 1015.99C1234.64 1006.36 1219.08 991.708 1207.23 972.047C1195.39 952.255 1189.46 927.581 1189.46 898.023C1189.46 855.185 1202.35 821.721 1228.13 797.633C1251.05 776.409 1280.54 765.797 1316.61 765.797C1355.8 765.797 1386.79 777.971 1409.58 802.32C1432.49 826.539 1443.95 858.44 1443.95 898.023C1443.95 942.034 1431.71 975.628 1407.23 998.805C1384.97 1019.77 1355.15 1030.25 1317.78 1030.25ZM1566.22 895.68C1567.26 896.721 1568.89 897.242 1571.1 897.242C1573.32 897.242 1575.2 896.786 1576.77 895.875C1573.38 876.083 1571.1 864.365 1569.93 860.719C1568.5 856.943 1566.35 855.055 1563.48 855.055C1562.18 855.055 1560.62 855.445 1558.8 856.227L1566.22 895.68ZM1527.55 954.273C1526.24 956.096 1525.59 957.789 1525.59 959.352C1525.59 963.128 1529.11 966.318 1536.14 968.922C1543.3 971.396 1551.96 972.958 1562.12 973.609C1563.81 992.359 1565.63 1003.04 1567.59 1005.64C1565.11 1010.46 1558.28 1015.34 1547.08 1020.29C1535.88 1025.11 1523.25 1027.52 1509.19 1027.52C1490.57 1027.52 1474.62 1023.54 1461.34 1015.6C1448.05 1007.53 1441.41 997.177 1441.41 984.547C1441.41 981.161 1441.74 978.167 1442.39 975.562L1483.99 789.625C1494.41 782.984 1506.84 777.776 1521.3 774C1535.75 770.224 1550.79 768.336 1566.41 768.336C1588.81 768.336 1607.95 772.112 1623.84 779.664C1641.93 788.258 1652.94 800.693 1656.84 816.969L1701.38 1001.15C1687.83 1018.73 1665.76 1027.52 1635.16 1027.52C1620.32 1027.52 1607.76 1024.85 1597.47 1019.51C1587.18 1014.17 1581.19 1006.55 1579.5 996.656L1575.2 972.828C1583.02 972.698 1590.57 971.201 1597.86 968.336C1605.15 965.471 1608.8 962.477 1608.8 959.352C1608.8 957.268 1607.95 955.576 1606.26 954.273C1601.31 957.789 1595.26 960.458 1588.09 962.281C1580.93 964.104 1574.29 965.016 1568.17 965.016C1550.59 965.016 1537.05 961.435 1527.55 954.273ZM1752.74 1024.2C1738.29 1024.2 1727.09 1020.35 1719.15 1012.67C1711.34 1004.99 1707.43 993.401 1707.43 977.906V786.891C1714.33 781.031 1722.73 776.539 1732.62 773.414C1742.65 770.159 1753 768.531 1763.68 768.531C1779.43 768.531 1792.78 772.438 1803.72 780.25C1815.57 789.104 1821.49 801.344 1821.49 816.969V923.805C1814.2 924.456 1807.04 926.539 1800.01 930.055C1792.98 933.44 1789.46 936.956 1789.46 940.602C1789.46 942.815 1790.7 944.703 1793.17 946.266C1806.06 935.458 1825.2 930.055 1850.59 930.055H1896.88C1905.48 945.159 1909.77 960.589 1909.77 976.344C1909.77 984.156 1908.41 992.815 1905.67 1002.32C1902.94 1011.83 1899.29 1019.12 1894.73 1024.2H1752.74Z" fill="white"/>
<path d="M958.114 1248.6C951.847 1248.6 946.647 1250.33 942.514 1253.8C938.381 1257.27 936.314 1261.47 936.314 1266.4C936.314 1271.47 938.381 1275.8 942.514 1279.4C946.647 1283 951.847 1284.8 958.114 1284.8C964.514 1284.8 969.714 1283 973.714 1279.4C977.847 1275.8 979.914 1271.47 979.914 1266.4C979.914 1261.47 977.847 1257.27 973.714 1253.8C969.714 1250.33 964.514 1248.6 958.114 1248.6ZM958.114 1230.8C964.114 1230.8 969.781 1231.73 975.114 1233.6C980.447 1235.47 985.047 1238 988.914 1241.2C992.914 1244.4 996.047 1248.2 998.314 1252.6C1000.58 1256.87 1001.71 1261.47 1001.71 1266.4C1001.71 1271.47 1000.58 1276.2 998.314 1280.6C996.047 1284.87 992.914 1288.6 988.914 1291.8C985.047 1295 980.447 1297.53 975.114 1299.4C969.781 1301.27 964.047 1302.2 957.914 1302.2C951.914 1302.2 946.314 1301.27 941.114 1299.4C935.914 1297.53 931.314 1295 927.314 1291.8C923.447 1288.6 920.381 1284.87 918.114 1280.6C915.847 1276.2 914.714 1271.47 914.714 1266.4C914.714 1261.47 915.847 1256.87 918.114 1252.6C920.381 1248.2 923.447 1244.4 927.314 1241.2C931.314 1238 935.914 1235.47 941.114 1233.6C946.447 1231.73 952.114 1230.8 958.114 1230.8ZM1012.51 1220.6C1012.51 1221.53 1012.18 1222.33 1011.51 1223C1010.98 1223.53 1010.31 1223.8 1009.51 1223.8H903.514C902.714 1223.8 901.981 1223.47 901.314 1222.8C900.647 1222.13 900.314 1221.33 900.314 1220.4V1208.6C900.314 1207.93 900.647 1207.27 901.314 1206.6C902.114 1205.93 902.914 1205.6 903.714 1205.6H1009.51C1010.31 1205.6 1010.98 1205.93 1011.51 1206.6C1012.18 1207.13 1012.51 1207.8 1012.51 1208.6V1220.6ZM986.714 1193.8C986.714 1194.6 986.381 1195.33 985.714 1196C985.181 1196.67 984.381 1197 983.314 1197H931.114C930.581 1197 929.914 1196.73 929.114 1196.2C928.447 1195.67 928.114 1194.93 928.114 1194V1182.2C928.114 1181.13 928.447 1180.33 929.114 1179.8C929.914 1179.27 930.581 1179 931.114 1179H983.314C984.247 1179 985.047 1179.33 985.714 1180C986.381 1180.67 986.714 1181.47 986.714 1182.4V1193.8ZM1056.31 1359C1056.31 1359.8 1055.98 1360.4 1055.31 1360.8C1054.65 1361.2 1053.98 1361.4 1053.31 1361.4H947.714C941.714 1361.4 937.647 1360.33 935.514 1358.2C933.381 1356.07 932.314 1352.4 932.314 1347.2V1316.2C932.314 1315.53 932.647 1314.87 933.314 1314.2C933.981 1313.53 934.647 1313.2 935.314 1313.2H952.314C953.247 1313.2 953.981 1313.53 954.514 1314.2C955.181 1314.87 955.514 1315.53 955.514 1316.2V1339C955.514 1340.33 955.781 1341.2 956.314 1341.6C956.847 1342 957.781 1342.2 959.114 1342.2H1053.31C1053.98 1342.2 1054.65 1342.47 1055.31 1343C1055.98 1343.53 1056.31 1344.13 1056.31 1344.8V1359ZM1078.51 1258.4C1078.51 1259.07 1078.18 1259.67 1077.51 1260.2C1076.98 1260.6 1076.31 1260.8 1075.51 1260.8H1048.51V1318.4C1048.51 1320.13 1047.65 1321 1045.91 1321H1028.11C1026.38 1321 1025.51 1320.13 1025.51 1318.4V1177.2C1025.51 1175.47 1026.38 1174.6 1028.11 1174.6H1045.91C1047.65 1174.6 1048.51 1175.47 1048.51 1177.2V1241.6H1075.51C1076.31 1241.6 1076.98 1241.87 1077.51 1242.4C1078.18 1242.93 1078.51 1243.53 1078.51 1244.2V1258.4ZM1240.6 1358.6C1240.6 1359.27 1240.27 1359.87 1239.6 1360.4C1238.93 1361.07 1238.33 1361.4 1237.8 1361.4H1126C1120.8 1361.4 1117.27 1360.47 1115.4 1358.6C1113.53 1356.73 1112.6 1353.67 1112.6 1349.4V1322.8C1112.6 1318.53 1113.47 1315.47 1115.2 1313.6C1117.07 1311.73 1120.6 1310.8 1125.8 1310.8H1211C1212.07 1310.8 1212.73 1310.73 1213 1310.6C1213.27 1310.33 1213.4 1309.6 1213.4 1308.4V1298.8C1213.4 1297.33 1213.27 1296.47 1213 1296.2C1212.73 1295.93 1212 1295.8 1210.8 1295.8H1115C1114.33 1295.8 1113.67 1295.53 1113 1295C1112.47 1294.47 1112.2 1293.87 1112.2 1293.2V1279.8C1112.2 1279.13 1112.47 1278.53 1113 1278C1113.67 1277.47 1114.33 1277.2 1115 1277.2H1222.2C1227.67 1277.2 1231.27 1278.07 1233 1279.8C1234.87 1281.4 1235.8 1284.47 1235.8 1289V1316C1235.8 1320.53 1234.87 1323.67 1233 1325.4C1231.27 1327 1227.67 1327.8 1222.2 1327.8H1137.6C1136.53 1327.8 1135.87 1328 1135.6 1328.4C1135.33 1328.67 1135.2 1329.33 1135.2 1330.4V1340.4C1135.2 1341.6 1135.33 1342.33 1135.6 1342.6C1135.87 1342.73 1136.6 1342.8 1137.8 1342.8H1237.6C1238.27 1342.8 1238.93 1343 1239.6 1343.4C1240.27 1343.93 1240.6 1344.6 1240.6 1345.4V1358.6ZM1236.8 1191C1236.8 1193.93 1236.67 1197.33 1236.4 1201.2C1236.27 1205.07 1236 1209.2 1235.6 1213.6C1235.2 1218 1234.67 1222.6 1234 1227.4C1233.33 1232.07 1232.53 1236.6 1231.6 1241H1259.8C1260.47 1241 1261.27 1241.33 1262.2 1242C1263.13 1242.67 1263.6 1243.4 1263.6 1244.2V1256.8C1263.6 1257.47 1263.27 1258.13 1262.6 1258.8C1261.93 1259.47 1261.27 1259.8 1260.6 1259.8H1086.6C1085.8 1259.8 1085.13 1259.47 1084.6 1258.8C1084.07 1258.13 1083.8 1257.47 1083.8 1256.8V1244.2C1083.8 1242.07 1084.73 1241 1086.6 1241H1210.6C1211.93 1234.6 1212.93 1227.93 1213.6 1221C1214.27 1214.07 1214.6 1207.27 1214.6 1200.6C1214.6 1198.73 1214.13 1197.6 1213.2 1197.2C1212.27 1196.67 1210.87 1196.4 1209 1196.4H1115.6C1114.93 1196.4 1114.27 1196.2 1113.6 1195.8C1112.93 1195.27 1112.6 1194.67 1112.6 1194V1180C1112.6 1179.2 1112.93 1178.6 1113.6 1178.2C1114.27 1177.8 1114.93 1177.6 1115.6 1177.6H1223.6C1227.87 1177.6 1231.13 1178.8 1233.4 1181.2C1235.67 1183.47 1236.8 1186.73 1236.8 1191Z" fill="white"/>
</svg>
