<svg width="2376" height="2375" viewBox="0 0 2376 2375" fill="none" xmlns="http://www.w3.org/2000/svg">
<path d="M2375.53 2375H1V2.70215L1731.66 2.70082C1681.68 6.35768 1780.32 -4.90616 1731.66 2.70082L2375.53 2.70218V2375Z" fill="#083900"/>
<path d="M0.999907 2375L0.530029 1304.33L2211.42 763.831C2332.71 706.051 1890.67 319.101 1836.24 196.251L1703.16 2.5H1868.63L2375.53 269.501V1581L790.844 2375H0.999907Z" fill="#C49A6C"/>
<path opacity="0.8" d="M1437.58 1744.83H51.8398L770.718 1681.21L1747.68 1678.93L1437.58 1744.83Z" fill="#2D3545"/>
<path d="M770.718 1681.21H717.058L704.501 1604.33L770.718 1604.24V1681.21Z" fill="#231F20"/>
<path d="M770.718 1604.24V1681.21L789.264 1604.24H770.718Z" fill="#BCBEC0"/>
<path d="M305.68 1604.29L1593.79 1604.16L942.064 1568.78L891.314 1508.46C888.888 1505.57 885.865 1503.25 882.455 1501.64C879.045 1500.04 875.328 1499.19 871.558 1499.15C867.789 1499.12 864.057 1499.9 860.619 1501.45C857.181 1503 854.118 1505.27 851.642 1508.11L796.933 1570.88L305.68 1604.29Z" fill="#231F20"/>
<path d="M1593.79 1199.21H457.919L550.511 954.85H1593.79V1199.21Z" fill="white"/>
<path d="M1593.8 1199.21V1365.9L1565.89 1199.21H1593.8Z" fill="white"/>
<path d="M1593.79 1365.9H307.679L457.919 1199.21H1565.89L1593.79 1365.9Z" fill="#CAD3D6"/>
<path d="M1593.79 954.85H551.001L636.004 916.87H1668.74L1593.79 954.85Z" fill="white"/>
<path d="M1668.74 916.87L1896.48 1146.85L1847.61 1216.67L1861.58 1544.81L1593.79 1604.16V954.85L1668.74 916.87Z" fill="white"/>
<path d="M1565.89 1199.21H474.216L565.478 972.3H1593.79L1565.89 1199.21Z" fill="#284F6B"/>
<path d="M465.928 1726.83H412.268L393.282 1604.24L465.928 1604.33V1726.83Z" fill="#231F20"/>
<path d="M465.928 1604.33V1726.83L493.613 1604.33H465.928Z" fill="#414042"/>
<path d="M556.78 1219.29H1480.27L1446.24 1260.51L1255.15 1329.25H649.712L522.597 1263.62L556.78 1219.29Z" fill="#231F20"/>
<path d="M1526.47 1716.35H1472.8L1452.76 1604.16H1526.47V1716.35Z" fill="#231F20"/>
<path d="M1526.47 1604.16V1726.83L1556.01 1604.16H1526.47Z" fill="#BCBEC0"/>
<path d="M1583.92 1603.62L946.113 1569C944.833 1568.93 943.581 1568.6 942.434 1568.03C941.287 1567.45 940.27 1566.65 939.444 1565.67L891.264 1508.39C888.843 1505.51 885.829 1503.2 882.428 1501.6C879.028 1499.99 875.321 1499.15 871.563 1499.12C867.805 1499.08 864.084 1499.86 860.656 1501.4C857.227 1502.94 854.173 1505.21 851.701 1508.04L799.492 1568C798.682 1568.93 797.696 1569.69 796.591 1570.24C795.486 1570.79 794.284 1571.12 793.053 1571.2L316.507 1603.61C313.105 1603.84 309.693 1603.33 306.503 1602.13C303.313 1600.92 300.42 1599.04 298.02 1596.62C295.62 1594.2 293.77 1591.28 292.596 1588.08C291.421 1584.88 290.949 1581.46 291.212 1578.06L307.009 1374.6C307.193 1372.25 308.258 1370.05 309.99 1368.44C311.723 1366.84 313.997 1365.95 316.357 1365.95H1584.42C1586.9 1365.95 1589.29 1366.94 1591.05 1368.7C1592.81 1370.46 1593.79 1372.84 1593.79 1375.33V1594.33C1593.79 1595.6 1593.52 1596.85 1593.01 1598.01C1592.51 1599.17 1591.77 1600.22 1590.84 1601.09C1589.92 1601.96 1588.83 1602.63 1587.64 1603.07C1586.45 1603.5 1585.18 1603.69 1583.92 1603.62Z" fill="#849DA7"/>
<path d="M1801.34 1678.93H1747.68L1730.52 1573.86L1801.34 1558.16V1678.93Z" fill="#231F20"/>
<path d="M1801.34 1558.16V1678.93L1832.08 1551.35L1801.34 1558.16Z" fill="#BCBEC0"/>
<path d="M538.153 1386.3L438.983 1383.19L413.248 1397.59L337.553 1381.88C335.705 1374.9 335.384 1367.6 336.613 1360.48C337.841 1353.37 340.59 1346.6 344.672 1340.64L365.668 1309.99L465.908 1317.27C473.776 1318.12 525.996 1329.27 532.505 1333.76L597.332 1365.9L538.153 1386.3Z" fill="#2D3545"/>
<path d="M1580.29 1305.52L1435.01 1315.12C1427.14 1315.97 1350.55 1327.63 1344.02 1332.12L1257.64 1365.88L1332.05 1386.28L1431.22 1383.17L1456.96 1397.57L1532.66 1381.86" fill="#2D3545"/>
<path d="M1471.47 1380.31C1485.57 1380.31 1496.99 1368.88 1496.99 1354.78C1496.99 1340.68 1485.57 1329.25 1471.47 1329.25C1457.37 1329.25 1445.94 1340.68 1445.94 1354.78C1445.94 1368.88 1457.37 1380.31 1471.47 1380.31Z" fill="#D1D3D4"/>
<path d="M415.808 1377.05C429.905 1377.05 441.333 1365.62 441.333 1351.52C441.333 1337.42 429.905 1325.99 415.808 1325.99C401.711 1325.99 390.283 1337.42 390.283 1351.52C390.283 1365.62 401.711 1377.05 415.808 1377.05Z" fill="#D1D3D4"/>
<path d="M1471.47 1371.2C1480.54 1371.2 1487.89 1363.85 1487.89 1354.78C1487.89 1345.71 1480.54 1338.36 1471.47 1338.36C1462.4 1338.36 1455.05 1345.71 1455.05 1354.78C1455.05 1363.85 1462.4 1371.2 1471.47 1371.2Z" fill="#2D3545"/>
<path d="M415.808 1367.94C424.875 1367.94 432.225 1360.59 432.225 1351.52C432.225 1342.45 424.875 1335.1 415.808 1335.1C406.741 1335.1 399.391 1342.45 399.391 1351.52C399.391 1360.59 406.741 1367.94 415.808 1367.94Z" fill="#2D3545"/>
<path d="M1545.69 954.85H627.456L675.856 916.87H1593.79L1545.69 954.85Z" fill="#231F20"/>
<path d="M1783.16 1182.9L1610.39 1199.21L1654.46 962.08L1730.52 991.77L1783.16 1182.9Z" fill="#849DA7"/>
</svg>
