<svg width="2376" height="2501" viewBox="0 0 2376 2501" fill="none" xmlns="http://www.w3.org/2000/svg">
<path d="M2376 2501H1V128.702L1732 128.701C1682.02 132.358 1780.67 121.094 1732 128.701L2376 128.702V2501Z" fill="#2D3545"/>
<path d="M1 2501L0.530029 1430.33L2211.86 889.831C2333.17 832.051 1891.04 445.101 1836.6 322.251L1703.5 128.5H1869L2376 395.501V1707L791 2501H1Z" fill="#C49A6C"/>
<path d="M2076.86 2446.83H2112.86L2148.86 2194.83L2076.86 2446.83Z" fill="#455166"/>
<path d="M2003.86 2471.83L2040.86 2464.83L1968.86 2347.83L2003.86 2471.83Z" fill="#455166"/>
<path d="M2039.86 2381.83L2058.86 2374.83L2031.86 2266.83L2039.86 2381.83Z" fill="#455166"/>
<path d="M715.15 177.03H740.36L765.55 0.629883L715.15 177.03Z" fill="#1B2128"/>
<path d="M765.55 214.83H790.75L834.86 101.43L765.55 214.83Z" fill="#1B2128"/>
<path d="M657.75 213.43L683.65 208.53L645.86 101.43L657.75 213.43Z" fill="#1B2128"/>
<path d="M689.25 156.73L702.55 151.83L683.65 76.23L689.25 156.73Z" fill="#1B2128"/>
<path d="M317.84 2201.83L645.84 2194.83L528.44 2146.49C505.61 2137.09 480.016 2136.96 457.09 2146.12L317.84 2201.83Z" fill="#A97C50"/>
<path d="M1914.86 1141.83L2083.55 1138.23L2032.91 1117.38C2014.92 1109.97 1994.76 1109.87 1976.7 1117.09L1914.86 1141.83Z" fill="#A97C50"/>
<path opacity="0.7" d="M348.86 2221.83L321.86 2203.83L645.86 2194.83" fill="#455166"/>
<path opacity="0.8" d="M1437.86 1870.83H51.8501L770.87 1807.21L1748.03 1804.93L1437.86 1870.83Z" fill="#2D3545"/>
<path d="M770.87 1807.21H717.2L704.64 1730.33L770.87 1730.24V1807.21Z" fill="#231F20"/>
<path d="M770.87 1730.24V1807.21L789.42 1730.24H770.87Z" fill="#BCBEC0"/>
<path d="M305.74 1730.29L1594.11 1730.16L942.25 1694.78L891.49 1634.46C889.063 1631.57 886.041 1629.25 882.63 1627.64C879.219 1626.04 875.501 1625.19 871.731 1625.15C867.96 1625.12 864.228 1625.9 860.789 1627.45C857.351 1629 854.287 1631.27 851.81 1634.11L797.09 1696.88L305.74 1730.29Z" fill="#231F20"/>
<path d="M1594.11 1325.21H458.01L550.62 1080.85H1594.11V1325.21Z" fill="white"/>
<path d="M1594.11 1325.21V1491.9L1566.2 1325.21H1594.11Z" fill="white"/>
<path d="M1594.11 1491.9H307.74L458.01 1325.21H1566.2L1594.11 1491.9Z" fill="#CAD3D6"/>
<path d="M1594.11 1080.85H551.11L636.13 1042.87H1669.07L1594.11 1080.85Z" fill="white"/>
<path d="M1669.07 1042.87L1896.86 1272.85L1847.98 1342.67L1861.95 1670.81L1594.11 1730.16V1080.85L1669.07 1042.87Z" fill="white"/>
<path d="M1566.2 1325.21H474.31L565.59 1098.3H1594.11L1566.2 1325.21Z" fill="#284F6B"/>
<path d="M466.02 1852.83H412.35L393.36 1730.24L466.02 1730.33V1852.83Z" fill="#231F20"/>
<path d="M466.02 1730.33V1852.83L493.71 1730.33H466.02Z" fill="#414042"/>
<path d="M556.89 1345.29H1480.56L1446.53 1386.51L1255.4 1455.25H649.84L522.7 1389.62L556.89 1345.29Z" fill="#231F20"/>
<path d="M1526.77 1842.35H1473.09L1453.05 1730.16H1526.77V1842.35Z" fill="#231F20"/>
<path d="M1526.77 1730.16V1852.83L1556.32 1730.16H1526.77Z" fill="#BCBEC0"/>
<path d="M1584.23 1729.62L946.3 1695C945.02 1694.93 943.768 1694.6 942.62 1694.03C941.473 1693.45 940.456 1692.65 939.63 1691.67L891.44 1634.39C889.019 1631.51 886.004 1629.2 882.603 1627.6C879.202 1625.99 875.495 1625.15 871.736 1625.12C867.977 1625.08 864.255 1625.86 860.826 1627.4C857.397 1628.94 854.342 1631.21 851.87 1634.04L799.65 1694C798.84 1694.93 797.854 1695.69 796.749 1696.24C795.644 1696.79 794.441 1697.12 793.21 1697.2L316.57 1729.61C313.167 1729.84 309.754 1729.33 306.563 1728.13C303.373 1726.92 300.479 1725.04 298.079 1722.62C295.679 1720.2 293.828 1717.28 292.654 1714.08C291.479 1710.88 291.007 1707.46 291.27 1704.06L307.07 1500.6C307.254 1498.25 308.319 1496.05 310.052 1494.44C311.785 1492.84 314.059 1491.95 316.42 1491.95H1584.73C1587.22 1491.95 1589.6 1492.94 1591.36 1494.7C1593.12 1496.46 1594.11 1498.84 1594.11 1501.33V1720.33C1594.1 1721.6 1593.84 1722.85 1593.33 1724.01C1592.82 1725.17 1592.08 1726.22 1591.16 1727.09C1590.24 1727.96 1589.14 1728.63 1587.95 1729.07C1586.76 1729.5 1585.5 1729.69 1584.23 1729.62Z" fill="#849DA7"/>
<path d="M1801.7 1804.93H1748.03L1730.86 1699.86L1801.7 1684.16V1804.93Z" fill="#231F20"/>
<path d="M1801.7 1684.16V1804.93L1832.44 1677.35L1801.7 1684.16Z" fill="#BCBEC0"/>
<path d="M538.26 1512.3L439.07 1509.19L413.33 1523.59L337.62 1507.88C335.771 1500.9 335.451 1493.6 336.679 1486.48C337.908 1479.37 340.657 1472.6 344.74 1466.64L365.74 1435.99L466 1443.27C473.87 1444.12 526.1 1455.27 532.61 1459.76L597.45 1491.9L538.26 1512.3Z" fill="#2D3545"/>
<path d="M1580.6 1431.52L1435.29 1441.12C1427.42 1441.97 1350.82 1453.63 1344.29 1458.12L1257.89 1491.88L1332.31 1512.28L1431.5 1509.17L1457.25 1523.57L1532.96 1507.86" fill="#2D3545"/>
<path d="M1471.76 1506.31C1485.86 1506.31 1497.29 1494.88 1497.29 1480.78C1497.29 1466.68 1485.86 1455.25 1471.76 1455.25C1457.66 1455.25 1446.23 1466.68 1446.23 1480.78C1446.23 1494.88 1457.66 1506.31 1471.76 1506.31Z" fill="#D1D3D4"/>
<path d="M415.89 1503.05C429.99 1503.05 441.42 1491.62 441.42 1477.52C441.42 1463.42 429.99 1451.99 415.89 1451.99C401.79 1451.99 390.36 1463.42 390.36 1477.52C390.36 1491.62 401.79 1503.05 415.89 1503.05Z" fill="#D1D3D4"/>
<path d="M1471.76 1497.2C1480.83 1497.2 1488.18 1489.85 1488.18 1480.78C1488.18 1471.71 1480.83 1464.36 1471.76 1464.36C1462.69 1464.36 1455.34 1471.71 1455.34 1480.78C1455.34 1489.85 1462.69 1497.2 1471.76 1497.2Z" fill="#2D3545"/>
<path d="M415.89 1493.94C424.958 1493.94 432.31 1486.59 432.31 1477.52C432.31 1468.45 424.958 1461.1 415.89 1461.1C406.821 1461.1 399.47 1468.45 399.47 1477.52C399.47 1486.59 406.821 1493.94 415.89 1493.94Z" fill="#2D3545"/>
<path d="M1546 1080.85H627.58L675.99 1042.87H1594.11L1546 1080.85Z" fill="#231F20"/>
<path d="M1783.51 1308.9L1610.71 1325.21L1654.79 1088.08L1730.86 1117.77L1783.51 1308.9Z" fill="#849DA7"/>
<path d="M1210.15 436.23H1235.36L1260.56 259.83L1210.15 436.23Z" fill="#1B2128"/>
<path d="M1260.56 474.03H1285.76L1329.86 360.63L1260.56 474.03Z" fill="#1B2128"/>
<path d="M1152.76 472.63L1178.65 467.73L1140.86 360.63L1152.76 472.63Z" fill="#1B2128"/>
<path d="M1184.26 415.93L1197.56 411.03L1178.65 335.43L1184.26 415.93Z" fill="#1B2128"/>
<path d="M1372.15 184.23H1397.36L1422.56 7.83008L1372.15 184.23Z" fill="#1B2128"/>
<path d="M1422.56 222.03H1447.76L1491.86 108.63L1422.56 222.03Z" fill="#1B2128"/>
<path d="M1314.76 220.63L1340.65 215.73L1302.86 108.63L1314.76 220.63Z" fill="#1B2128"/>
<path d="M1346.26 163.93L1359.56 159.03L1340.65 83.4302L1346.26 163.93Z" fill="#1B2128"/>
<path d="M2153.36 141.03H2171.36L2202.86 60.03L2153.36 141.03Z" fill="#1B2128"/>
<path d="M2076.36 140.03L2094.86 136.53L2067.86 60.03L2076.36 140.03Z" fill="#1B2128"/>
<path d="M247.16 762.03H272.36L297.56 585.63L247.16 762.03Z" fill="#1B2128"/>
<path d="M297.56 799.83H322.75L366.86 686.43L297.56 799.83Z" fill="#1B2128"/>
<path d="M189.75 798.43L215.66 793.53L177.85 686.43L189.75 798.43Z" fill="#1B2128"/>
<path d="M221.25 741.73L234.56 736.83L215.66 661.23L221.25 741.73Z" fill="#1B2128"/>
<path d="M1685.36 895.45H1710.86L1736.36 716.95L1685.36 895.45Z" fill="#455166"/>
<path d="M1691.73 952.83H1717.23L1761.86 838.08L1691.73 952.83Z" fill="#455166"/>
<path d="M1633.65 913.16L1659.86 908.2L1608.86 825.33L1633.65 913.16Z" fill="#455166"/>
<path d="M1659.15 849.41L1672.61 844.45L1653.48 767.95L1659.15 849.41Z" fill="#455166"/>
<path d="M186.85 1252.08H213.85L240.85 1063.08L186.85 1252.08Z" fill="#455166"/>
<path d="M193.6 1312.83H220.6L267.86 1191.33L193.6 1312.83Z" fill="#455166"/>
<path d="M132.1 1270.83L159.85 1265.58L105.86 1177.83L132.1 1270.83Z" fill="#455166"/>
<path d="M159.1 1203.33L173.35 1198.08L153.1 1117.08L159.1 1203.33Z" fill="#455166"/>
<path d="M2193.86 1849.23H2219.05L2244.26 1672.83L2193.86 1849.23Z" fill="#2D3545"/>
<path d="M2202.86 1809.63H2228.05L2272.16 1696.23L2202.86 1809.63Z" fill="#2D3545"/>
<path d="M2160.76 1847.83L2186.66 1842.93L2148.86 1735.83L2160.76 1847.83Z" fill="#2D3545"/>
<path d="M2192.26 1791.13L2205.55 1786.23L2186.66 1710.63L2192.26 1791.13Z" fill="#2D3545"/>
</svg>
