<svg width="2375" height="2375" viewBox="0 0 2375 2375" fill="none" xmlns="http://www.w3.org/2000/svg">
<circle cx="1496" cy="1188" r="700" fill="#F3BD9A"/>
<path opacity="0.8" d="M1564.74 1688.96H871.868H179L800 1623.06H1874.84L1564.74 1688.96Z" fill="#2D3545"/>
<path d="M847.878 1625.34H794.219L781.661 1548.46L847.878 1548.37V1625.34Z" fill="#231F20"/>
<path d="M847.878 1548.37V1625.34L866.424 1548.37H847.878Z" fill="#BCBEC0"/>
<path d="M366 1549L1670.95 1548.29L1019.22 1512.91L968.474 1452.59C966.048 1449.7 963.026 1447.38 959.615 1445.77C956.205 1444.17 952.488 1443.32 948.718 1443.28C944.949 1443.25 941.217 1444.03 937.779 1445.58C934.341 1447.13 931.279 1449.4 928.802 1452.24L874.093 1515.01L366 1549Z" fill="#231F20"/>
<path d="M1670.95 1143.34H535.079L627.671 898.98H1670.95V1143.34Z" fill="#F4F4F4"/>
<path d="M1670.96 1143.34V1310.03L1643.05 1143.34H1670.96Z" fill="#F4F4F4"/>
<path d="M1670.95 1310.03L385 1310L535.08 1143.34H1643.05L1670.95 1310.03Z" fill="#CAD3D6"/>
<path d="M1670.95 898.98H628.161L713.164 861H1745.9L1670.95 898.98Z" fill="#F4F4F4"/>
<path d="M1745.9 861L1973.65 1090.98L1924.77 1160.8L1938.74 1488.94L1670.96 1548.29V898.98L1745.9 861Z" fill="#F4F4F4"/>
<path d="M1643.05 1143.34H551.376L642.638 916.43H1670.95L1643.05 1143.34Z" fill="#284F6B"/>
<path d="M543.088 1670.96H489.429L470.442 1548.37L543.088 1548.46V1670.96Z" fill="#231F20"/>
<path d="M543.088 1548.46V1670.96L570.772 1548.46H543.088Z" fill="#414042"/>
<path d="M633.94 1163.42H1557.43L1523.4 1204.64L1332.31 1273.38H726.872L599.757 1207.75L633.94 1163.42Z" fill="#231F20"/>
<path d="M1603.63 1670.88H1549.96L1529.92 1548.29H1603.63V1670.88Z" fill="#231F20"/>
<path d="M1603.63 1548.29V1670.96L1633.17 1548.29H1603.63Z" fill="#BCBEC0"/>
<path d="M1661.03 1548.04L1023.23 1513.42C1021.95 1513.34 1020.7 1513.01 1019.55 1512.44C1018.4 1511.87 1017.38 1511.07 1016.56 1510.08L968.378 1452.8C965.957 1449.93 962.943 1447.61 959.543 1446.01C956.142 1444.41 952.435 1443.56 948.677 1443.53C944.919 1443.5 941.198 1444.28 937.77 1445.82C934.341 1447.36 931.287 1449.62 928.816 1452.46L876.607 1512.42C875.797 1513.35 874.811 1514.11 873.706 1514.66C872.601 1515.21 871.399 1515.53 870.168 1515.61L366 1549L384.124 1319.02C384.308 1316.66 385 1310 385 1310H1671C1671 1310 1670.91 1317.26 1670.91 1319.75V1538.75L1670.95 1548.29L1661.03 1548.04Z" fill="#849DA7"/>
<path d="M1878.5 1623.06H1824.84L1807.68 1517.99L1878.5 1502.29V1623.06Z" fill="#231F20"/>
<path d="M1878.5 1502.29V1623.06L1909.24 1495.48L1878.5 1502.29Z" fill="#BCBEC0"/>
<path d="M615.314 1330.43L516.143 1327.32L490.408 1341.72L414.713 1326.01C412.865 1319.03 412.545 1311.73 413.773 1304.61C415.001 1297.5 417.75 1290.73 421.832 1284.77L442.828 1254.12L543.068 1261.4C550.936 1262.25 603.156 1273.4 609.665 1277.89L674.492 1310.03L615.314 1330.43Z" fill="#2D3545"/>
<path d="M1657.45 1249.65L1512.17 1259.25C1504.3 1260.1 1427.71 1271.76 1421.18 1276.25L1334.8 1310.01L1409.21 1330.41L1508.38 1327.3L1534.12 1341.7L1609.82 1325.99" fill="#2D3545"/>
<path d="M1548.63 1324.44C1562.73 1324.44 1574.15 1313.01 1574.15 1298.91C1574.15 1284.81 1562.73 1273.38 1548.63 1273.38C1534.53 1273.38 1523.1 1284.81 1523.1 1298.91C1523.1 1313.01 1534.53 1324.44 1548.63 1324.44Z" fill="#D1D3D4"/>
<path d="M492.967 1321.18C507.064 1321.18 518.492 1309.75 518.492 1295.65C518.492 1281.55 507.064 1270.12 492.967 1270.12C478.87 1270.12 467.442 1281.55 467.442 1295.65C467.442 1309.75 478.87 1321.18 492.967 1321.18Z" fill="#D1D3D4"/>
<path d="M1548.63 1315.33C1557.7 1315.33 1565.05 1307.98 1565.05 1298.91C1565.05 1289.84 1557.7 1282.49 1548.63 1282.49C1539.56 1282.49 1532.21 1289.84 1532.21 1298.91C1532.21 1307.98 1539.56 1315.33 1548.63 1315.33Z" fill="#2D3545"/>
<path d="M492.968 1312.07C502.034 1312.07 509.384 1304.72 509.384 1295.65C509.384 1286.58 502.034 1279.23 492.968 1279.23C483.901 1279.23 476.551 1286.58 476.551 1295.65C476.551 1304.72 483.901 1312.07 492.968 1312.07Z" fill="#2D3545"/>
<path d="M1622.85 898.98H704.616L753.017 861H1670.95L1622.85 898.98Z" fill="#231F20"/>
<path d="M1860.32 1127.03L1687.55 1143.34L1731.62 906.21L1807.68 935.9L1860.32 1127.03Z" fill="#849DA7"/>
</svg>
